<?xml version="1.0" encoding="UTF-8"?>
<svg xmlns="http://www.w3.org/2000/svg" xmlns:xlink="http://www.w3.org/1999/xlink" width="3000" height="3000" viewBox="0 0 3000 3000">
<defs>
<clipPath id="clip-0">
<path clip-rule="nonzero" d="M 597 1665 L 987 1665 L 987 1724 L 597 1724 Z M 597 1665 "/>
</clipPath>
<clipPath id="clip-1">
<path clip-rule="nonzero" d="M 986.855469 1665.699219 L 986.128906 1711.828125 C 891.234375 1714.46875 658.882812 1721.011719 597.945312 1723.511719 L 598.703125 1685.601562 C 638.703125 1693.679688 690.632812 1699.351562 757.179688 1698.820312 C 904.078125 1697.679688 963.722656 1678.121094 986.855469 1665.699219 Z M 986.855469 1665.699219 "/>
</clipPath>
<clipPath id="clip-2">
<path clip-rule="nonzero" d="M 986.855469 1665.699219 L 986.128906 1711.828125 C 891.234375 1714.46875 658.882812 1721.011719 597.945312 1723.511719 L 598.703125 1685.601562 C 638.703125 1693.679688 690.632812 1699.351562 757.179688 1698.820312 C 904.078125 1697.679688 963.722656 1678.121094 986.855469 1665.699219 "/>
</clipPath>
<linearGradient id="linear-pattern-0" gradientUnits="userSpaceOnUse" x1="-0.493607" y1="0" x2="0.636508" y2="0" gradientTransform="matrix(0, 51.1541, -51.1541, 0, 792.4, 1690.95)">
<stop offset="0" stop-color="rgb(100%, 77.645874%, 55.293274%)" stop-opacity="1"/>
<stop offset="0.25" stop-color="rgb(100%, 77.645874%, 55.293274%)" stop-opacity="1"/>
<stop offset="0.375" stop-color="rgb(100%, 77.645874%, 55.293274%)" stop-opacity="1"/>
<stop offset="0.4375" stop-color="rgb(99.993896%, 77.638245%, 55.285645%)" stop-opacity="1"/>
<stop offset="0.453125" stop-color="rgb(99.888611%, 77.485657%, 55.110168%)" stop-opacity="1"/>
<stop offset="0.46875" stop-color="rgb(99.687195%, 77.194214%, 54.777527%)" stop-opacity="1"/>
<stop offset="0.484375" stop-color="rgb(99.485779%, 76.902771%, 54.444885%)" stop-opacity="1"/>
<stop offset="0.5" stop-color="rgb(99.284363%, 76.611328%, 54.110718%)" stop-opacity="1"/>
<stop offset="0.515625" stop-color="rgb(99.082947%, 76.319885%, 53.778076%)" stop-opacity="1"/>
<stop offset="0.53125" stop-color="rgb(98.883057%, 76.028442%, 53.443909%)" stop-opacity="1"/>
<stop offset="0.546875" stop-color="rgb(98.681641%, 75.737%, 53.111267%)" stop-opacity="1"/>
<stop offset="0.5625" stop-color="rgb(98.480225%, 75.444031%, 52.7771%)" stop-opacity="1"/>
<stop offset="0.578125" stop-color="rgb(98.278809%, 75.152588%, 52.444458%)" stop-opacity="1"/>
<stop offset="0.59375" stop-color="rgb(98.077393%, 74.861145%, 52.110291%)" stop-opacity="1"/>
<stop offset="0.609375" stop-color="rgb(97.875977%, 74.569702%, 51.777649%)" stop-opacity="1"/>
<stop offset="0.625" stop-color="rgb(97.674561%, 74.278259%, 51.445007%)" stop-opacity="1"/>
<stop offset="0.640625" stop-color="rgb(97.473145%, 73.986816%, 51.11084%)" stop-opacity="1"/>
<stop offset="0.65625" stop-color="rgb(97.271729%, 73.695374%, 50.778198%)" stop-opacity="1"/>
<stop offset="0.671875" stop-color="rgb(97.070312%, 73.403931%, 50.444031%)" stop-opacity="1"/>
<stop offset="0.6875" stop-color="rgb(96.868896%, 73.110962%, 50.111389%)" stop-opacity="1"/>
<stop offset="0.703125" stop-color="rgb(96.66748%, 72.819519%, 49.777222%)" stop-opacity="1"/>
<stop offset="0.71875" stop-color="rgb(96.466064%, 72.528076%, 49.44458%)" stop-opacity="1"/>
<stop offset="0.734375" stop-color="rgb(96.264648%, 72.236633%, 49.111938%)" stop-opacity="1"/>
<stop offset="0.75" stop-color="rgb(96.063232%, 71.94519%, 48.777771%)" stop-opacity="1"/>
<stop offset="0.765625" stop-color="rgb(95.861816%, 71.653748%, 48.445129%)" stop-opacity="1"/>
<stop offset="0.78125" stop-color="rgb(95.6604%, 71.362305%, 48.110962%)" stop-opacity="1"/>
<stop offset="0.796875" stop-color="rgb(95.458984%, 71.069336%, 47.77832%)" stop-opacity="1"/>
<stop offset="0.8125" stop-color="rgb(95.257568%, 70.777893%, 47.444153%)" stop-opacity="1"/>
<stop offset="0.828125" stop-color="rgb(95.056152%, 70.48645%, 47.111511%)" stop-opacity="1"/>
<stop offset="0.84375" stop-color="rgb(94.854736%, 70.195007%, 46.777344%)" stop-opacity="1"/>
<stop offset="0.859375" stop-color="rgb(94.65332%, 69.903564%, 46.444702%)" stop-opacity="1"/>
<stop offset="0.875" stop-color="rgb(94.451904%, 69.612122%, 46.112061%)" stop-opacity="1"/>
<stop offset="0.890625" stop-color="rgb(94.250488%, 69.320679%, 45.777893%)" stop-opacity="1"/>
<stop offset="0.90625" stop-color="rgb(94.049072%, 69.02771%, 45.445251%)" stop-opacity="1"/>
<stop offset="0.921875" stop-color="rgb(93.847656%, 68.736267%, 45.111084%)" stop-opacity="1"/>
<stop offset="0.9375" stop-color="rgb(93.64624%, 68.444824%, 44.778442%)" stop-opacity="1"/>
<stop offset="0.953125" stop-color="rgb(93.444824%, 68.153381%, 44.444275%)" stop-opacity="1"/>
<stop offset="0.96875" stop-color="rgb(93.243408%, 67.861938%, 44.111633%)" stop-opacity="1"/>
<stop offset="0.984375" stop-color="rgb(93.041992%, 67.570496%, 43.777466%)" stop-opacity="1"/>
<stop offset="1" stop-color="rgb(92.840576%, 67.279053%, 43.444824%)" stop-opacity="1"/>
</linearGradient>
<clipPath id="clip-3">
<path clip-rule="nonzero" d="M 2172 1677 L 2611 1677 L 2611 2175 L 2172 2175 Z M 2172 1677 "/>
</clipPath>
<clipPath id="clip-4">
<path clip-rule="nonzero" d="M 2610.710938 2174.75 C 2459.941406 2161.171875 2188.820312 2149.269531 2188.820312 2149.269531 C 2188.820312 2083.25 2175.878906 1834.710938 2172.011719 1735.988281 C 2397.050781 1734.289062 2602.859375 1677.648438 2602.859375 1677.648438 C 2602.859375 1677.648438 2594.011719 1934.488281 2607.289062 2122.699219 C 2608.511719 2139.988281 2609.660156 2157.378906 2610.710938 2174.75 Z M 2610.710938 2174.75 "/>
</clipPath>
<clipPath id="clip-5">
<path clip-rule="nonzero" d="M 2610.710938 2174.75 C 2459.941406 2161.171875 2188.820312 2149.269531 2188.820312 2149.269531 C 2188.820312 2083.25 2175.878906 1834.710938 2172.011719 1735.988281 C 2397.050781 1734.289062 2602.859375 1677.648438 2602.859375 1677.648438 C 2602.859375 1677.648438 2594.011719 1934.488281 2607.289062 2122.699219 C 2608.511719 2139.988281 2609.660156 2157.378906 2610.710938 2174.75 "/>
</clipPath>
<linearGradient id="linear-pattern-1" gradientUnits="userSpaceOnUse" x1="0.228467" y1="0" x2="1.443709" y2="0" gradientTransform="matrix(86.353, -460.55, 460.55, 86.353, 2324.44, 2312.25)">
<stop offset="0" stop-color="rgb(91.415405%, 79.0802%, 28.222656%)" stop-opacity="1"/>
<stop offset="0.03125" stop-color="rgb(91.549683%, 79.199219%, 28.318787%)" stop-opacity="1"/>
<stop offset="0.0625" stop-color="rgb(91.818237%, 79.437256%, 28.512573%)" stop-opacity="1"/>
<stop offset="0.09375" stop-color="rgb(92.085266%, 79.675293%, 28.70636%)" stop-opacity="1"/>
<stop offset="0.125" stop-color="rgb(92.353821%, 79.91333%, 28.900146%)" stop-opacity="1"/>
<stop offset="0.15625" stop-color="rgb(92.622375%, 80.151367%, 29.093933%)" stop-opacity="1"/>
<stop offset="0.1875" stop-color="rgb(92.889404%, 80.39093%, 29.286194%)" stop-opacity="1"/>
<stop offset="0.21875" stop-color="rgb(93.157959%, 80.628967%, 29.47998%)" stop-opacity="1"/>
<stop offset="0.25" stop-color="rgb(93.426514%, 80.867004%, 29.673767%)" stop-opacity="1"/>
<stop offset="0.28125" stop-color="rgb(93.693542%, 81.105042%, 29.867554%)" stop-opacity="1"/>
<stop offset="0.3125" stop-color="rgb(93.962097%, 81.343079%, 30.06134%)" stop-opacity="1"/>
<stop offset="0.34375" stop-color="rgb(94.230652%, 81.581116%, 30.255127%)" stop-opacity="1"/>
<stop offset="0.375" stop-color="rgb(94.497681%, 81.820679%, 30.448914%)" stop-opacity="1"/>
<stop offset="0.40625" stop-color="rgb(94.766235%, 82.058716%, 30.6427%)" stop-opacity="1"/>
<stop offset="0.4375" stop-color="rgb(95.03479%, 82.296753%, 30.836487%)" stop-opacity="1"/>
<stop offset="0.46875" stop-color="rgb(95.301819%, 82.53479%, 31.028748%)" stop-opacity="1"/>
<stop offset="0.5" stop-color="rgb(95.570374%, 82.772827%, 31.222534%)" stop-opacity="1"/>
<stop offset="0.53125" stop-color="rgb(95.838928%, 83.010864%, 31.416321%)" stop-opacity="1"/>
<stop offset="0.5625" stop-color="rgb(96.107483%, 83.250427%, 31.610107%)" stop-opacity="1"/>
<stop offset="0.59375" stop-color="rgb(96.374512%, 83.488464%, 31.803894%)" stop-opacity="1"/>
<stop offset="0.625" stop-color="rgb(96.643066%, 83.726501%, 31.997681%)" stop-opacity="1"/>
<stop offset="0.75" stop-color="rgb(96.818542%, 83.882141%, 32.125854%)" stop-opacity="1"/>
<stop offset="1" stop-color="rgb(96.861267%, 83.920288%, 32.156372%)" stop-opacity="1"/>
</linearGradient>
<clipPath id="clip-6">
<path clip-rule="nonzero" d="M 1695 2115 L 2189 2115 L 2189 2761 L 1695 2761 Z M 1695 2115 "/>
</clipPath>
<clipPath id="clip-7">
<path clip-rule="nonzero" d="M 2024.960938 2494.679688 C 1947.421875 2578.308594 1935.660156 2695.339844 1935.910156 2760.46875 C 1842.238281 2766.398438 1695.050781 2720.519531 1695.050781 2720.519531 C 1695.050781 2720.519531 1781.800781 2280.75 1807.011719 2115.578125 L 2188.820312 2149.269531 C 2188.820312 2149.269531 2137.890625 2372.898438 2024.960938 2494.679688 Z M 2024.960938 2494.679688 "/>
</clipPath>
<clipPath id="clip-8">
<path clip-rule="nonzero" d="M 2024.960938 2494.679688 C 1947.421875 2578.308594 1935.660156 2695.339844 1935.910156 2760.46875 C 1842.238281 2766.398438 1695.050781 2720.519531 1695.050781 2720.519531 C 1695.050781 2720.519531 1781.800781 2280.75 1807.011719 2115.578125 L 2188.820312 2149.269531 C 2188.820312 2149.269531 2137.890625 2372.898438 2024.960938 2494.679688 "/>
</clipPath>
<linearGradient id="linear-pattern-2" gradientUnits="userSpaceOnUse" x1="0.366061" y1="0" x2="1.134485" y2="0" gradientTransform="matrix(-662.04, 15.4993, -15.4993, -662.04, 2438.54, 2424.85)">
<stop offset="0" stop-color="rgb(92.38739%, 79.943848%, 28.924561%)" stop-opacity="1"/>
<stop offset="0.0625" stop-color="rgb(92.556763%, 80.093384%, 29.046631%)" stop-opacity="1"/>
<stop offset="0.125" stop-color="rgb(92.895508%, 80.395508%, 29.290771%)" stop-opacity="1"/>
<stop offset="0.1875" stop-color="rgb(93.234253%, 80.696106%, 29.536438%)" stop-opacity="1"/>
<stop offset="0.25" stop-color="rgb(93.572998%, 80.99823%, 29.780579%)" stop-opacity="1"/>
<stop offset="0.3125" stop-color="rgb(93.911743%, 81.298828%, 30.026245%)" stop-opacity="1"/>
<stop offset="0.375" stop-color="rgb(94.252014%, 81.599426%, 30.270386%)" stop-opacity="1"/>
<stop offset="0.4375" stop-color="rgb(94.590759%, 81.90155%, 30.516052%)" stop-opacity="1"/>
<stop offset="0.5" stop-color="rgb(94.929504%, 82.202148%, 30.760193%)" stop-opacity="1"/>
<stop offset="0.5625" stop-color="rgb(95.26825%, 82.504272%, 31.004333%)" stop-opacity="1"/>
<stop offset="0.625" stop-color="rgb(95.606995%, 82.804871%, 31.25%)" stop-opacity="1"/>
<stop offset="0.6875" stop-color="rgb(95.947266%, 83.106995%, 31.494141%)" stop-opacity="1"/>
<stop offset="0.75" stop-color="rgb(96.286011%, 83.407593%, 31.739807%)" stop-opacity="1"/>
<stop offset="0.8125" stop-color="rgb(96.624756%, 83.709717%, 31.983948%)" stop-opacity="1"/>
<stop offset="0.875" stop-color="rgb(96.827698%, 83.889771%, 32.131958%)" stop-opacity="1"/>
<stop offset="1" stop-color="rgb(96.861267%, 83.920288%, 32.156372%)" stop-opacity="1"/>
</linearGradient>
<clipPath id="clip-9">
<path clip-rule="nonzero" d="M 2188 2149 L 2618 2149 L 2618 2806 L 2188 2806 Z M 2188 2149 "/>
</clipPath>
<clipPath id="clip-10">
<path clip-rule="nonzero" d="M 2589.578125 2623.101562 C 2554.148438 2738.230469 2556.371094 2793.589844 2556.371094 2793.589844 C 2556.371094 2793.589844 2464.488281 2810.898438 2368.5 2804.21875 C 2358.039062 2803.488281 2347.539062 2802.480469 2337.089844 2801.121094 C 2329.289062 2715.53125 2315.929688 2554.480469 2320.269531 2499.628906 C 2326.269531 2423.539062 2188.820312 2149.269531 2188.820312 2149.269531 C 2188.820312 2149.269531 2459.941406 2161.171875 2610.710938 2174.75 C 2612.621094 2206.488281 2614.210938 2238.238281 2615.308594 2269.578125 C 2620.191406 2407.761719 2615.808594 2537.871094 2589.578125 2623.101562 Z M 2589.578125 2623.101562 "/>
</clipPath>
<clipPath id="clip-11">
<path clip-rule="nonzero" d="M 2589.578125 2623.101562 C 2554.148438 2738.230469 2556.371094 2793.589844 2556.371094 2793.589844 C 2556.371094 2793.589844 2464.488281 2810.898438 2368.5 2804.21875 C 2358.039062 2803.488281 2347.539062 2802.480469 2337.089844 2801.121094 C 2329.289062 2715.53125 2315.929688 2554.480469 2320.269531 2499.628906 C 2326.269531 2423.539062 2188.820312 2149.269531 2188.820312 2149.269531 C 2188.820312 2149.269531 2459.941406 2161.171875 2610.710938 2174.75 C 2612.621094 2206.488281 2614.210938 2238.238281 2615.308594 2269.578125 C 2620.191406 2407.761719 2615.808594 2537.871094 2589.578125 2623.101562 "/>
</clipPath>
<linearGradient id="linear-pattern-3" gradientUnits="userSpaceOnUse" x1="0.21324" y1="0" x2="2.02007" y2="0" gradientTransform="matrix(286.344, -42.0505, 42.0505, 286.344, 2082.86, 2514.12)">
<stop offset="0" stop-color="rgb(91.308594%, 78.98407%, 28.144836%)" stop-opacity="1"/>
<stop offset="0.015625" stop-color="rgb(91.407776%, 79.072571%, 28.216553%)" stop-opacity="1"/>
<stop offset="0.03125" stop-color="rgb(91.60614%, 79.249573%, 28.361511%)" stop-opacity="1"/>
<stop offset="0.046875" stop-color="rgb(91.80603%, 79.426575%, 28.504944%)" stop-opacity="1"/>
<stop offset="0.0625" stop-color="rgb(92.00592%, 79.603577%, 28.648376%)" stop-opacity="1"/>
<stop offset="0.078125" stop-color="rgb(92.204285%, 79.782104%, 28.793335%)" stop-opacity="1"/>
<stop offset="0.09375" stop-color="rgb(92.404175%, 79.959106%, 28.936768%)" stop-opacity="1"/>
<stop offset="0.109375" stop-color="rgb(92.602539%, 80.136108%, 29.0802%)" stop-opacity="1"/>
<stop offset="0.125" stop-color="rgb(92.802429%, 80.31311%, 29.223633%)" stop-opacity="1"/>
<stop offset="0.140625" stop-color="rgb(93.002319%, 80.490112%, 29.368591%)" stop-opacity="1"/>
<stop offset="0.15625" stop-color="rgb(93.200684%, 80.667114%, 29.512024%)" stop-opacity="1"/>
<stop offset="0.171875" stop-color="rgb(93.400574%, 80.844116%, 29.655457%)" stop-opacity="1"/>
<stop offset="0.1875" stop-color="rgb(93.598938%, 81.021118%, 29.800415%)" stop-opacity="1"/>
<stop offset="0.203125" stop-color="rgb(93.798828%, 81.19812%, 29.943848%)" stop-opacity="1"/>
<stop offset="0.21875" stop-color="rgb(93.998718%, 81.375122%, 30.08728%)" stop-opacity="1"/>
<stop offset="0.234375" stop-color="rgb(94.197083%, 81.552124%, 30.232239%)" stop-opacity="1"/>
<stop offset="0.25" stop-color="rgb(94.396973%, 81.730652%, 30.375671%)" stop-opacity="1"/>
<stop offset="0.265625" stop-color="rgb(94.595337%, 81.907654%, 30.519104%)" stop-opacity="1"/>
<stop offset="0.28125" stop-color="rgb(94.795227%, 82.084656%, 30.664062%)" stop-opacity="1"/>
<stop offset="0.296875" stop-color="rgb(94.995117%, 82.261658%, 30.807495%)" stop-opacity="1"/>
<stop offset="0.3125" stop-color="rgb(95.193481%, 82.43866%, 30.950928%)" stop-opacity="1"/>
<stop offset="0.328125" stop-color="rgb(95.393372%, 82.615662%, 31.095886%)" stop-opacity="1"/>
<stop offset="0.34375" stop-color="rgb(95.591736%, 82.792664%, 31.239319%)" stop-opacity="1"/>
<stop offset="0.359375" stop-color="rgb(95.791626%, 82.969666%, 31.382751%)" stop-opacity="1"/>
<stop offset="0.375" stop-color="rgb(95.991516%, 83.146667%, 31.52771%)" stop-opacity="1"/>
<stop offset="0.390625" stop-color="rgb(96.18988%, 83.323669%, 31.671143%)" stop-opacity="1"/>
<stop offset="0.40625" stop-color="rgb(96.389771%, 83.500671%, 31.814575%)" stop-opacity="1"/>
<stop offset="0.4375" stop-color="rgb(96.67511%, 83.755493%, 32.022095%)" stop-opacity="1"/>
<stop offset="0.5" stop-color="rgb(96.861267%, 83.920288%, 32.156372%)" stop-opacity="1"/>
<stop offset="1" stop-color="rgb(96.861267%, 83.920288%, 32.156372%)" stop-opacity="1"/>
</linearGradient>
<clipPath id="clip-12">
<path clip-rule="nonzero" d="M 2355 201 L 2513 201 L 2513 256 L 2355 256 Z M 2355 201 "/>
</clipPath>
<clipPath id="clip-13">
<path clip-rule="nonzero" d="M 2512.539062 255.449219 L 2390.410156 255.769531 L 2355.558594 234.558594 L 2376.050781 230.011719 L 2391.988281 225.460938 L 2394.269531 214.828125 L 2409.441406 216.351562 L 2406.410156 201.171875 Z M 2512.539062 255.449219 "/>
</clipPath>
<clipPath id="clip-14">
<path clip-rule="nonzero" d="M 2512.539062 255.449219 L 2390.410156 255.769531 L 2355.558594 234.558594 L 2376.050781 230.011719 L 2391.988281 225.460938 L 2394.269531 214.828125 L 2409.441406 216.351562 L 2406.410156 201.171875 L 2512.539062 255.449219 "/>
</clipPath>
<linearGradient id="linear-pattern-4" gradientUnits="userSpaceOnUse" x1="-0.691707" y1="0" x2="0.608747" y2="0" gradientTransform="matrix(4.49083, 52.0188, -52.0188, 4.49083, 2432.82, 230.75)">
<stop offset="0" stop-color="rgb(100%, 77.645874%, 55.293274%)" stop-opacity="1"/>
<stop offset="0.5" stop-color="rgb(100%, 77.645874%, 55.293274%)" stop-opacity="1"/>
<stop offset="0.53125" stop-color="rgb(100%, 77.645874%, 55.293274%)" stop-opacity="1"/>
<stop offset="0.546875" stop-color="rgb(99.888611%, 77.484131%, 55.108643%)" stop-opacity="1"/>
<stop offset="0.5625" stop-color="rgb(99.661255%, 77.156067%, 54.733276%)" stop-opacity="1"/>
<stop offset="0.578125" stop-color="rgb(99.429321%, 76.821899%, 54.350281%)" stop-opacity="1"/>
<stop offset="0.59375" stop-color="rgb(99.197388%, 76.486206%, 53.965759%)" stop-opacity="1"/>
<stop offset="0.609375" stop-color="rgb(98.965454%, 76.150513%, 53.582764%)" stop-opacity="1"/>
<stop offset="0.625" stop-color="rgb(98.733521%, 75.814819%, 53.199768%)" stop-opacity="1"/>
<stop offset="0.640625" stop-color="rgb(98.503113%, 75.479126%, 52.815247%)" stop-opacity="1"/>
<stop offset="0.65625" stop-color="rgb(98.271179%, 75.143433%, 52.432251%)" stop-opacity="1"/>
<stop offset="0.671875" stop-color="rgb(98.039246%, 74.807739%, 52.047729%)" stop-opacity="1"/>
<stop offset="0.6875" stop-color="rgb(97.807312%, 74.472046%, 51.664734%)" stop-opacity="1"/>
<stop offset="0.703125" stop-color="rgb(97.575378%, 74.136353%, 51.281738%)" stop-opacity="1"/>
<stop offset="0.71875" stop-color="rgb(97.343445%, 73.800659%, 50.897217%)" stop-opacity="1"/>
<stop offset="0.734375" stop-color="rgb(97.111511%, 73.464966%, 50.514221%)" stop-opacity="1"/>
<stop offset="0.75" stop-color="rgb(96.881104%, 73.129272%, 50.131226%)" stop-opacity="1"/>
<stop offset="0.765625" stop-color="rgb(96.64917%, 72.793579%, 49.746704%)" stop-opacity="1"/>
<stop offset="0.78125" stop-color="rgb(96.417236%, 72.457886%, 49.363708%)" stop-opacity="1"/>
<stop offset="0.796875" stop-color="rgb(96.185303%, 72.122192%, 48.980713%)" stop-opacity="1"/>
<stop offset="0.8125" stop-color="rgb(95.953369%, 71.786499%, 48.596191%)" stop-opacity="1"/>
<stop offset="0.828125" stop-color="rgb(95.721436%, 71.450806%, 48.213196%)" stop-opacity="1"/>
<stop offset="0.84375" stop-color="rgb(95.489502%, 71.115112%, 47.828674%)" stop-opacity="1"/>
<stop offset="0.859375" stop-color="rgb(95.257568%, 70.779419%, 47.445679%)" stop-opacity="1"/>
<stop offset="0.875" stop-color="rgb(95.027161%, 70.445251%, 47.062683%)" stop-opacity="1"/>
<stop offset="0.890625" stop-color="rgb(94.795227%, 70.109558%, 46.678162%)" stop-opacity="1"/>
<stop offset="0.90625" stop-color="rgb(94.563293%, 69.773865%, 46.295166%)" stop-opacity="1"/>
<stop offset="0.921875" stop-color="rgb(94.33136%, 69.438171%, 45.91217%)" stop-opacity="1"/>
<stop offset="0.9375" stop-color="rgb(94.099426%, 69.102478%, 45.527649%)" stop-opacity="1"/>
<stop offset="0.953125" stop-color="rgb(93.867493%, 68.766785%, 45.144653%)" stop-opacity="1"/>
<stop offset="0.96875" stop-color="rgb(93.635559%, 68.431091%, 44.761658%)" stop-opacity="1"/>
<stop offset="0.984375" stop-color="rgb(93.403625%, 68.095398%, 44.377136%)" stop-opacity="1"/>
<stop offset="1" stop-color="rgb(93.173218%, 67.759705%, 43.994141%)" stop-opacity="1"/>
</linearGradient>
<clipPath id="clip-15">
<path clip-rule="nonzero" d="M 2540 269 L 2647 269 L 2647 386 L 2540 386 Z M 2540 269 "/>
</clipPath>
<clipPath id="clip-16">
<path clip-rule="nonzero" d="M 2621.941406 355.230469 L 2599.941406 359.789062 L 2603.730469 385.589844 L 2541.21875 347.550781 C 2541 312.308594 2540.640625 273.160156 2540.058594 269.53125 L 2637.878906 319.558594 L 2646.230469 336.261719 L 2612.839844 336.261719 Z M 2621.941406 355.230469 "/>
</clipPath>
<clipPath id="clip-17">
<path clip-rule="nonzero" d="M 2621.941406 355.230469 L 2599.941406 359.789062 L 2603.730469 385.589844 L 2541.21875 347.550781 C 2541 312.308594 2540.640625 273.160156 2540.058594 269.53125 L 2637.878906 319.558594 L 2646.230469 336.261719 L 2612.839844 336.261719 L 2621.941406 355.230469 "/>
</clipPath>
<linearGradient id="linear-pattern-5" gradientUnits="userSpaceOnUse" x1="-0.730821" y1="0" x2="0.395873" y2="0" gradientTransform="matrix(-95.4301, 1.12271, -1.12271, -95.4301, 2577.16, 327.5)">
<stop offset="0" stop-color="rgb(100%, 77.645874%, 55.293274%)" stop-opacity="1"/>
<stop offset="0.5" stop-color="rgb(100%, 77.645874%, 55.293274%)" stop-opacity="1"/>
<stop offset="0.625" stop-color="rgb(100%, 77.645874%, 55.293274%)" stop-opacity="1"/>
<stop offset="0.65625" stop-color="rgb(99.949646%, 77.575684%, 55.212402%)" stop-opacity="1"/>
<stop offset="0.671875" stop-color="rgb(99.80011%, 77.359009%, 54.96521%)" stop-opacity="1"/>
<stop offset="0.6875" stop-color="rgb(99.60022%, 77.067566%, 54.632568%)" stop-opacity="1"/>
<stop offset="0.703125" stop-color="rgb(99.398804%, 76.777649%, 54.299927%)" stop-opacity="1"/>
<stop offset="0.71875" stop-color="rgb(99.198914%, 76.486206%, 53.968811%)" stop-opacity="1"/>
<stop offset="0.734375" stop-color="rgb(98.997498%, 76.196289%, 53.636169%)" stop-opacity="1"/>
<stop offset="0.75" stop-color="rgb(98.797607%, 75.904846%, 53.303528%)" stop-opacity="1"/>
<stop offset="0.765625" stop-color="rgb(98.596191%, 75.614929%, 52.970886%)" stop-opacity="1"/>
<stop offset="0.78125" stop-color="rgb(98.394775%, 75.323486%, 52.639771%)" stop-opacity="1"/>
<stop offset="0.796875" stop-color="rgb(98.194885%, 75.032043%, 52.307129%)" stop-opacity="1"/>
<stop offset="0.8125" stop-color="rgb(97.993469%, 74.742126%, 51.974487%)" stop-opacity="1"/>
<stop offset="0.828125" stop-color="rgb(97.793579%, 74.450684%, 51.641846%)" stop-opacity="1"/>
<stop offset="0.84375" stop-color="rgb(97.592163%, 74.160767%, 51.309204%)" stop-opacity="1"/>
<stop offset="0.859375" stop-color="rgb(97.392273%, 73.869324%, 50.978088%)" stop-opacity="1"/>
<stop offset="0.875" stop-color="rgb(97.190857%, 73.579407%, 50.645447%)" stop-opacity="1"/>
<stop offset="0.890625" stop-color="rgb(96.989441%, 73.287964%, 50.312805%)" stop-opacity="1"/>
<stop offset="0.90625" stop-color="rgb(96.789551%, 72.998047%, 49.980164%)" stop-opacity="1"/>
<stop offset="0.921875" stop-color="rgb(96.588135%, 72.706604%, 49.647522%)" stop-opacity="1"/>
<stop offset="0.9375" stop-color="rgb(96.388245%, 72.415161%, 49.316406%)" stop-opacity="1"/>
<stop offset="0.953125" stop-color="rgb(96.186829%, 72.125244%, 48.983765%)" stop-opacity="1"/>
<stop offset="0.96875" stop-color="rgb(95.985413%, 71.833801%, 48.651123%)" stop-opacity="1"/>
<stop offset="0.984375" stop-color="rgb(95.785522%, 71.543884%, 48.318481%)" stop-opacity="1"/>
<stop offset="1" stop-color="rgb(95.584106%, 71.252441%, 47.987366%)" stop-opacity="1"/>
</linearGradient>
<clipPath id="clip-18">
<path clip-rule="nonzero" d="M 1773 1345 L 1915 1345 L 1915 1395 L 1773 1395 Z M 1773 1345 "/>
</clipPath>
<clipPath id="clip-19">
<path clip-rule="nonzero" d="M 1773.191406 1346.25 L 1882.890625 1345.960938 L 1914.191406 1365.011719 L 1895.789062 1369.101562 L 1881.46875 1373.191406 L 1879.429688 1382.730469 L 1865.789062 1381.371094 L 1868.519531 1395 Z M 1773.191406 1346.25 "/>
</clipPath>
<clipPath id="clip-20">
<path clip-rule="nonzero" d="M 1773.191406 1346.25 L 1882.890625 1345.960938 L 1914.191406 1365.011719 L 1895.789062 1369.101562 L 1881.46875 1373.191406 L 1879.429688 1382.730469 L 1865.789062 1381.371094 L 1868.519531 1395 L 1773.191406 1346.25 "/>
</clipPath>
<linearGradient id="linear-pattern-6" gradientUnits="userSpaceOnUse" x1="-0.691489" y1="0" x2="0.608887" y2="0" gradientTransform="matrix(-4.0338, -46.7248, 46.7248, -4.0338, 1844.8, 1368.44)">
<stop offset="0" stop-color="rgb(100%, 77.645874%, 55.293274%)" stop-opacity="1"/>
<stop offset="0.5" stop-color="rgb(100%, 77.645874%, 55.293274%)" stop-opacity="1"/>
<stop offset="0.53125" stop-color="rgb(100%, 77.645874%, 55.293274%)" stop-opacity="1"/>
<stop offset="0.546875" stop-color="rgb(99.887085%, 77.484131%, 55.107117%)" stop-opacity="1"/>
<stop offset="0.5625" stop-color="rgb(99.659729%, 77.154541%, 54.730225%)" stop-opacity="1"/>
<stop offset="0.578125" stop-color="rgb(99.427795%, 76.818848%, 54.347229%)" stop-opacity="1"/>
<stop offset="0.59375" stop-color="rgb(99.195862%, 76.483154%, 53.962708%)" stop-opacity="1"/>
<stop offset="0.609375" stop-color="rgb(98.963928%, 76.147461%, 53.579712%)" stop-opacity="1"/>
<stop offset="0.625" stop-color="rgb(98.731995%, 75.811768%, 53.19519%)" stop-opacity="1"/>
<stop offset="0.640625" stop-color="rgb(98.500061%, 75.476074%, 52.812195%)" stop-opacity="1"/>
<stop offset="0.65625" stop-color="rgb(98.268127%, 75.140381%, 52.429199%)" stop-opacity="1"/>
<stop offset="0.671875" stop-color="rgb(98.03772%, 74.804688%, 52.044678%)" stop-opacity="1"/>
<stop offset="0.6875" stop-color="rgb(97.805786%, 74.468994%, 51.661682%)" stop-opacity="1"/>
<stop offset="0.703125" stop-color="rgb(97.573853%, 74.133301%, 51.278687%)" stop-opacity="1"/>
<stop offset="0.71875" stop-color="rgb(97.341919%, 73.797607%, 50.894165%)" stop-opacity="1"/>
<stop offset="0.734375" stop-color="rgb(97.109985%, 73.461914%, 50.511169%)" stop-opacity="1"/>
<stop offset="0.75" stop-color="rgb(96.878052%, 73.126221%, 50.128174%)" stop-opacity="1"/>
<stop offset="0.765625" stop-color="rgb(96.646118%, 72.790527%, 49.743652%)" stop-opacity="1"/>
<stop offset="0.78125" stop-color="rgb(96.41571%, 72.454834%, 49.360657%)" stop-opacity="1"/>
<stop offset="0.796875" stop-color="rgb(96.183777%, 72.120667%, 48.977661%)" stop-opacity="1"/>
<stop offset="0.8125" stop-color="rgb(95.951843%, 71.784973%, 48.59314%)" stop-opacity="1"/>
<stop offset="0.828125" stop-color="rgb(95.71991%, 71.44928%, 48.210144%)" stop-opacity="1"/>
<stop offset="0.84375" stop-color="rgb(95.487976%, 71.113586%, 47.827148%)" stop-opacity="1"/>
<stop offset="0.859375" stop-color="rgb(95.256042%, 70.777893%, 47.442627%)" stop-opacity="1"/>
<stop offset="0.875" stop-color="rgb(95.024109%, 70.4422%, 47.059631%)" stop-opacity="1"/>
<stop offset="0.890625" stop-color="rgb(94.793701%, 70.106506%, 46.67511%)" stop-opacity="1"/>
<stop offset="0.90625" stop-color="rgb(94.561768%, 69.770813%, 46.292114%)" stop-opacity="1"/>
<stop offset="0.921875" stop-color="rgb(94.329834%, 69.43512%, 45.909119%)" stop-opacity="1"/>
<stop offset="0.9375" stop-color="rgb(94.0979%, 69.099426%, 45.524597%)" stop-opacity="1"/>
<stop offset="0.953125" stop-color="rgb(93.865967%, 68.763733%, 45.141602%)" stop-opacity="1"/>
<stop offset="0.96875" stop-color="rgb(93.634033%, 68.42804%, 44.758606%)" stop-opacity="1"/>
<stop offset="0.984375" stop-color="rgb(93.4021%, 68.092346%, 44.374084%)" stop-opacity="1"/>
<stop offset="1" stop-color="rgb(93.171692%, 67.756653%, 43.991089%)" stop-opacity="1"/>
</linearGradient>
<clipPath id="clip-21">
<path clip-rule="nonzero" d="M 1653 1229 L 1749 1229 L 1749 1334 L 1653 1334 Z M 1653 1229 "/>
</clipPath>
<clipPath id="clip-22">
<path clip-rule="nonzero" d="M 1674.921875 1256.621094 L 1694.691406 1252.53125 L 1691.28125 1229.351562 L 1747.421875 1263.519531 C 1747.621094 1295.179688 1747.949219 1330.339844 1748.46875 1333.601562 L 1660.601562 1288.660156 L 1653.109375 1273.660156 L 1683.101562 1273.660156 Z M 1674.921875 1256.621094 "/>
</clipPath>
<clipPath id="clip-23">
<path clip-rule="nonzero" d="M 1674.921875 1256.621094 L 1694.691406 1252.53125 L 1691.28125 1229.351562 L 1747.421875 1263.519531 C 1747.621094 1295.179688 1747.949219 1330.339844 1748.46875 1333.601562 L 1660.601562 1288.660156 L 1653.109375 1273.660156 L 1683.101562 1273.660156 L 1674.921875 1256.621094 "/>
</clipPath>
<linearGradient id="linear-pattern-7" gradientUnits="userSpaceOnUse" x1="-0.730812" y1="0" x2="0.395822" y2="0" gradientTransform="matrix(85.7182, -1.00845, 1.00845, 85.7182, 1715.15, 1281.53)">
<stop offset="0" stop-color="rgb(100%, 77.645874%, 55.293274%)" stop-opacity="1"/>
<stop offset="0.5" stop-color="rgb(100%, 77.645874%, 55.293274%)" stop-opacity="1"/>
<stop offset="0.625" stop-color="rgb(100%, 77.645874%, 55.293274%)" stop-opacity="1"/>
<stop offset="0.65625" stop-color="rgb(99.951172%, 77.575684%, 55.212402%)" stop-opacity="1"/>
<stop offset="0.671875" stop-color="rgb(99.801636%, 77.359009%, 54.96521%)" stop-opacity="1"/>
<stop offset="0.6875" stop-color="rgb(99.60022%, 77.069092%, 54.634094%)" stop-opacity="1"/>
<stop offset="0.703125" stop-color="rgb(99.40033%, 76.777649%, 54.301453%)" stop-opacity="1"/>
<stop offset="0.71875" stop-color="rgb(99.198914%, 76.487732%, 53.968811%)" stop-opacity="1"/>
<stop offset="0.734375" stop-color="rgb(98.997498%, 76.196289%, 53.636169%)" stop-opacity="1"/>
<stop offset="0.75" stop-color="rgb(98.797607%, 75.906372%, 53.305054%)" stop-opacity="1"/>
<stop offset="0.765625" stop-color="rgb(98.596191%, 75.614929%, 52.972412%)" stop-opacity="1"/>
<stop offset="0.78125" stop-color="rgb(98.396301%, 75.323486%, 52.639771%)" stop-opacity="1"/>
<stop offset="0.796875" stop-color="rgb(98.194885%, 75.033569%, 52.307129%)" stop-opacity="1"/>
<stop offset="0.8125" stop-color="rgb(97.994995%, 74.742126%, 51.974487%)" stop-opacity="1"/>
<stop offset="0.828125" stop-color="rgb(97.793579%, 74.452209%, 51.643372%)" stop-opacity="1"/>
<stop offset="0.84375" stop-color="rgb(97.592163%, 74.160767%, 51.31073%)" stop-opacity="1"/>
<stop offset="0.859375" stop-color="rgb(97.392273%, 73.87085%, 50.978088%)" stop-opacity="1"/>
<stop offset="0.875" stop-color="rgb(97.190857%, 73.579407%, 50.645447%)" stop-opacity="1"/>
<stop offset="0.890625" stop-color="rgb(96.990967%, 73.28949%, 50.314331%)" stop-opacity="1"/>
<stop offset="0.90625" stop-color="rgb(96.789551%, 72.998047%, 49.981689%)" stop-opacity="1"/>
<stop offset="0.921875" stop-color="rgb(96.589661%, 72.70813%, 49.649048%)" stop-opacity="1"/>
<stop offset="0.9375" stop-color="rgb(96.388245%, 72.416687%, 49.316406%)" stop-opacity="1"/>
<stop offset="0.953125" stop-color="rgb(96.186829%, 72.125244%, 48.985291%)" stop-opacity="1"/>
<stop offset="0.96875" stop-color="rgb(95.986938%, 71.835327%, 48.652649%)" stop-opacity="1"/>
<stop offset="0.984375" stop-color="rgb(95.785522%, 71.543884%, 48.320007%)" stop-opacity="1"/>
<stop offset="1" stop-color="rgb(95.585632%, 71.253967%, 47.987366%)" stop-opacity="1"/>
</linearGradient>
</defs>
<path fill-rule="nonzero" fill="rgb(100%, 93.75%, 86.326599%)" fill-opacity="1" d="M 2966.191406 2966.191406 L 33.808594 2966.191406 L 33.808594 33.808594 L 2966.191406 33.808594 L 2966.191406 2966.191406 "/>
<path fill-rule="nonzero" fill="rgb(38.818359%, 23.925781%, 7.835388%)" fill-opacity="1" d="M 388.695312 2612.789062 L 370.890625 2694.199219 L 419.226562 2691.660156 L 406.507812 2785.789062 C 406.507812 2785.789062 963.664062 2811.230469 1365.628906 2752.71875 L 1253.691406 1796.128906 L 1202.808594 1775.78125 L 1210.441406 1727.441406 L 879.710938 1770.691406 L 604.945312 2070.898438 L 388.695312 2612.789062 "/>
<path fill-rule="nonzero" fill="rgb(93.359375%, 49.804688%, 49.021912%)" fill-opacity="1" d="M 1304.859375 2709.148438 C 861.136719 2751.511719 399.269531 2741.429688 399.269531 2741.429688 C 400.816406 2731.890625 402.695312 2713.449219 404.789062 2688.179688 C 408.121094 2647.96875 412.039062 2590.5 416.175781 2524.089844 C 433.089844 2252.601562 453.722656 1831.789062 453.722656 1831.789062 L 1178.878906 1757.230469 L 1226.648438 1752.308594 L 1238.300781 1751.109375 L 1304.859375 2709.148438 "/>
<path fill-rule="nonzero" fill="rgb(84.764099%, 37.646484%, 37.646484%)" fill-opacity="1" d="M 1242.140625 2553.171875 C 1242.140625 2553.171875 1121.800781 2673.511719 1011.089844 2683.140625 C 916.101562 2691.398438 516.480469 2689.03125 404.789062 2688.179688 C 408.121094 2647.96875 412.039062 2590.5 416.175781 2524.089844 L 457.515625 2392.710938 L 574.648438 2187.328125 L 1178.878906 1757.230469 L 1226.648438 1752.308594 L 1242.140625 2553.171875 "/>
<path fill-rule="nonzero" fill="rgb(96.875%, 83.984375%, 32.151794%)" fill-opacity="1" d="M 1214.648438 2489.128906 C 1108.398438 2617.28125 951.761719 2653.238281 951.761719 2653.238281 C 815.148438 2657.441406 618.832031 2655.910156 351.699219 2637.339844 C 376.523438 2571.671875 400.304688 2202.921875 375.867188 1910.890625 C 370.402344 1845.519531 362.523438 1783.988281 351.699219 1730.570312 L 1182.511719 1706.839844 C 1182.511719 1706.839844 1186.929688 1772.808594 1192.5 1869.980469 C 1202.410156 2042.898438 1215.949219 2314.628906 1214.648438 2489.128906 "/>
<path fill-rule="nonzero" fill="rgb(87.889099%, 75.389099%, 23.143005%)" fill-opacity="1" d="M 1214.648438 2489.128906 C 1108.398438 2617.28125 951.761719 2653.238281 951.761719 2653.238281 C 993.554688 2622.691406 1042.261719 2571.808594 1066.320312 2491.601562 C 1066.320312 2491.601562 1123.589844 2519.308594 1214.648438 2489.128906 "/>
<path fill-rule="nonzero" fill="rgb(45.483398%, 80.46875%, 80.46875%)" fill-opacity="1" d="M 1192.5 1869.980469 L 375.867188 1910.890625 C 370.402344 1845.519531 362.523438 1783.988281 351.699219 1730.570312 L 683.027344 1721.109375 L 999.902344 1712.050781 L 1017.25 1711.550781 L 1182.511719 1706.839844 C 1182.511719 1706.839844 1186.929688 1772.808594 1192.5 1869.980469 "/>
<path fill-rule="nonzero" fill="rgb(34.521484%, 71.679688%, 70.506287%)" fill-opacity="1" d="M 999.902344 1712.050781 C 998.859375 1743.171875 997.894531 1780.5 997.894531 1780.5 L 606.101562 1777.210938 L 604.449219 1754.941406 L 683.027344 1721.109375 L 999.902344 1712.050781 "/>
<path fill-rule="nonzero" fill="rgb(100%, 77.734375%, 55.271912%)" fill-opacity="1" d="M 986.949219 1660.058594 L 986.855469 1665.699219 L 986.128906 1711.828125 L 985.277344 1765.429688 L 597.207031 1760.421875 L 597.945312 1723.511719 L 598.703125 1685.601562 L 598.878906 1676.78125 L 986.949219 1660.058594 "/>
<g clip-path="url(#clip-0)">
<g clip-path="url(#clip-1)">
<g clip-path="url(#clip-2)">
<path fill-rule="nonzero" fill="url(#linear-pattern-0)" d="M 986.855469 1665.699219 L 597.945312 1665.699219 L 597.945312 1723.511719 L 986.855469 1723.511719 Z M 986.855469 1665.699219 "/>
</g>
</g>
</g>
<path fill-rule="nonzero" fill="rgb(38.818359%, 23.925781%, 7.835388%)" fill-opacity="1" d="M 1691.28125 2645.511719 L 1689.28125 2701.390625 L 1717.21875 2709.371094 L 1721.210938 2767.238281 L 1807.011719 2763.25 L 1820.980469 2817.121094 C 1820.980469 2817.121094 1932.730469 2735.308594 2126.289062 2777.210938 C 2319.851562 2819.121094 2297.898438 2865.019531 2549.328125 2823.109375 L 2553.320312 2805.148438 L 2615.179688 2817.121094 L 2611.191406 2759.261719 L 2697 2773.21875 L 2673.050781 2685.421875 L 2463.53125 2266.371094 L 1777.078125 2617.578125 L 1691.28125 2645.511719 "/>
<path fill-rule="nonzero" fill="rgb(45.483398%, 80.46875%, 80.46875%)" fill-opacity="1" d="M 2708.558594 2734.488281 C 2708.558594 2734.488281 2693.351562 2731.261719 2665.488281 2726.140625 C 2625.671875 2718.828125 2559.980469 2707.679688 2475.898438 2696.648438 C 2315.820312 2675.640625 2089.050781 2655.03125 1847.101562 2662.140625 C 1789.878906 2663.808594 1731.808594 2667.050781 1673.570312 2672.191406 C 1673.570312 2672.191406 1680.609375 2631.730469 1690.648438 2561.179688 C 1693.5 2541.128906 1696.601562 2518.660156 1699.839844 2493.988281 C 1734.078125 2380.550781 1768.960938 2252.519531 1768.949219 2201.378906 C 1768.941406 2139.019531 1760.109375 1973.78125 1754.511719 1858.96875 C 1754.71875 1853.699219 1754.910156 1848.429688 1755.109375 1843.140625 C 1756.140625 1814.640625 1756.988281 1785.800781 1757.628906 1756.71875 C 1757.628906 1756.71875 1780.5 1756.71875 1821.300781 1755.308594 C 1940.859375 1751.230469 2214.449219 1735.210938 2518.230469 1672.378906 C 2518.230469 1672.378906 2550.101562 2051.359375 2611.910156 2377.109375 C 2616.191406 2399.738281 2620.628906 2422.121094 2625.21875 2444.089844 C 2649.121094 2558.671875 2676.921875 2662.320312 2708.558594 2734.488281 "/>
<path fill-rule="nonzero" fill="rgb(28.24707%, 60.742188%, 59.959412%)" fill-opacity="1" d="M 1786.101562 2302.890625 C 1786.101562 2302.890625 1797.148438 2059.648438 1787.480469 2009.898438 C 1781.660156 1980.019531 1766.378906 1901.269531 1755.109375 1843.140625 C 1756.140625 1814.640625 1756.988281 1785.800781 1757.628906 1756.71875 C 1757.628906 1756.71875 1780.5 1756.71875 1821.300781 1755.308594 L 1831.699219 1777.71875 L 1866.261719 1867.550781 L 1885.601562 2166.070312 L 1786.101562 2302.890625 "/>
<path fill-rule="nonzero" fill="rgb(28.24707%, 60.742188%, 59.959412%)" fill-opacity="1" d="M 1960.238281 2456.289062 C 1950.371094 2499.039062 1877.019531 2615.71875 1847.101562 2662.140625 C 1789.878906 2663.808594 1731.808594 2667.050781 1673.570312 2672.191406 C 1673.570312 2672.191406 1680.609375 2631.730469 1690.648438 2561.179688 C 1715.089844 2480.898438 1755.871094 2346.128906 1809.601562 2160.550781 C 1900.808594 1845.449219 1972.671875 2402.390625 1960.238281 2456.289062 "/>
<path fill-rule="nonzero" fill="rgb(28.24707%, 60.742188%, 59.959412%)" fill-opacity="1" d="M 2665.488281 2726.140625 C 2625.671875 2718.828125 2559.980469 2707.679688 2475.898438 2696.648438 L 2457.761719 2481.171875 L 2501.988281 2380.28125 L 2547.589844 2344.351562 L 2611.910156 2377.109375 C 2616.191406 2399.738281 2620.628906 2422.121094 2625.21875 2444.089844 C 2630.929688 2517.808594 2642.570312 2637.28125 2665.488281 2726.140625 "/>
<path fill-rule="nonzero" fill="rgb(93.359375%, 49.804688%, 49.021912%)" fill-opacity="1" d="M 2643.269531 2800.210938 C 2643.269531 2800.210938 2621.671875 2797.039062 2584.808594 2792.46875 C 2559.101562 2789.28125 2525.949219 2785.390625 2487.53125 2781.421875 C 2409.378906 2773.359375 2309.441406 2764.921875 2205.890625 2761.160156 C 2092.230469 2757.039062 1974.210938 2758.53125 1875.878906 2772.300781 C 1846.308594 2776.441406 1818.53125 2781.699219 1793.171875 2788.230469 L 1794.5 2759.101562 L 1796.289062 2720.019531 L 1833.398438 1908.261719 L 1841.070312 1740.578125 C 1841.070312 1726.429688 1838.339844 1697.269531 1836.578125 1679.820312 C 1835.71875 1671.421875 1835.078125 1665.738281 1835.078125 1665.738281 C 1835.078125 1665.738281 2024.511719 1711.28125 2342.269531 1724.210938 C 2369.308594 1725.308594 2397.28125 1726.179688 2426.148438 1726.761719 C 2469.101562 1727.621094 2514.050781 1727.851562 2560.839844 1727.289062 C 2579.03125 1727.070312 2597.519531 1726.738281 2616.28125 1726.269531 C 2624.230469 1726.078125 2632.230469 1725.851562 2640.28125 1725.621094 C 2640.28125 1725.621094 2627.648438 1833.910156 2617.738281 1974.671875 C 2612.46875 2049.550781 2607.96875 2133.621094 2606.558594 2215.46875 C 2605.78125 2259.988281 2605.921875 2303.859375 2607.351562 2345.230469 C 2608.378906 2375.238281 2609.660156 2404.371094 2611.101562 2432.429688 C 2614 2488.660156 2617.558594 2540.578125 2621.269531 2586.609375 C 2631.75 2717.019531 2643.269531 2800.210938 2643.269531 2800.210938 "/>
<path fill-rule="nonzero" fill="rgb(45.483398%, 80.46875%, 80.46875%)" fill-opacity="1" d="M 1750.589844 1739.949219 L 1750.289062 1740.148438 C 1750.378906 1739.839844 1750.46875 1739.78125 1750.589844 1739.949219 "/>
<path fill-rule="nonzero" fill="rgb(84.764099%, 37.646484%, 37.646484%)" fill-opacity="1" d="M 2205.890625 2761.160156 C 2092.230469 2757.039062 1974.210938 2758.53125 1875.878906 2772.300781 C 1840.761719 2765.261719 1812.320312 2761.25 1794.5 2759.101562 L 1796.289062 2720.019531 L 1827.289062 2668.839844 L 1921.621094 2641.53125 L 2117.738281 2634.078125 C 2117.738281 2634.078125 2214.550781 2699.871094 2215.800781 2724.699219 C 2216.261719 2733.921875 2211.75 2747.601562 2205.890625 2761.160156 "/>
<path fill-rule="nonzero" fill="rgb(84.764099%, 37.646484%, 37.646484%)" fill-opacity="1" d="M 2621.269531 2586.609375 C 2596.75 2656.191406 2587.769531 2749.988281 2584.808594 2792.46875 C 2559.101562 2789.28125 2525.949219 2785.390625 2487.53125 2781.421875 L 2466.171875 2720.609375 L 2459.421875 2603.25 L 2605.769531 2429.929688 C 2605.769531 2429.929688 2607.839844 2430.71875 2611.101562 2432.429688 C 2614 2488.660156 2617.558594 2540.578125 2621.269531 2586.609375 "/>
<path fill-rule="nonzero" fill="rgb(84.764099%, 37.646484%, 37.646484%)" fill-opacity="1" d="M 2617.738281 1974.671875 C 2612.46875 2049.550781 2607.96875 2133.621094 2606.558594 2215.46875 C 2573.96875 2204.039062 2525.070312 2142.398438 2525.070312 2142.398438 L 2510.71875 1920.648438 L 2520.648438 1762.878906 L 2540.519531 1746.339844 L 2560.839844 1727.289062 C 2579.03125 1727.070312 2597.519531 1726.738281 2616.28125 1726.269531 C 2615.398438 1762.179688 2613.46875 1867.070312 2617.738281 1974.671875 "/>
<path fill-rule="nonzero" fill="rgb(84.764099%, 37.646484%, 37.646484%)" fill-opacity="1" d="M 2167.390625 1964.28125 L 1833.398438 1908.261719 L 1841.070312 1740.578125 C 1841.070312 1726.429688 1838.339844 1697.269531 1836.578125 1679.820312 C 1885.550781 1693.960938 2096.101562 1748.75 2342.269531 1724.210938 C 2344.328125 1724.019531 2346.398438 1723.808594 2348.480469 1723.589844 C 2387.359375 1719.511719 2412.199219 1721.058594 2426.148438 1726.761719 C 2514.128906 1762.71875 2167.390625 1964.28125 2167.390625 1964.28125 "/>
<path fill-rule="nonzero" fill="rgb(96.875%, 83.984375%, 32.151794%)" fill-opacity="1" d="M 2589.578125 2623.101562 C 2554.148438 2738.230469 2556.371094 2793.589844 2556.371094 2793.589844 C 2556.371094 2793.589844 2464.488281 2810.898438 2368.5 2804.21875 C 2358.039062 2803.488281 2347.539062 2802.480469 2337.089844 2801.121094 C 2319.789062 2798.890625 2302.671875 2795.71875 2286.238281 2791.378906 C 2168.890625 2760.378906 2047.109375 2742.671875 1956.320312 2758.160156 C 1949.898438 2759.261719 1943.050781 2760.011719 1935.910156 2760.46875 C 1842.238281 2766.398438 1695.050781 2720.519531 1695.050781 2720.519531 C 1695.050781 2720.519531 1781.800781 2280.75 1807.011719 2115.578125 C 1808.21875 2107.710938 1809.289062 2100.460938 1810.191406 2093.910156 C 1830.121094 1949.988281 1770.328125 1688.710938 1770.328125 1688.710938 C 1770.328125 1688.710938 1869.980469 1726.359375 2115.75 1735.21875 C 2134.558594 1735.890625 2153.359375 1736.128906 2172.011719 1735.988281 C 2397.050781 1734.289062 2602.859375 1677.648438 2602.859375 1677.648438 C 2602.859375 1677.648438 2594.050781 1933.191406 2607.191406 2121.261719 C 2607.230469 2121.738281 2607.261719 2122.21875 2607.289062 2122.699219 C 2608.511719 2139.988281 2609.660156 2157.378906 2610.710938 2174.75 C 2612.621094 2206.488281 2614.210938 2238.238281 2615.308594 2269.578125 C 2620.191406 2407.761719 2615.808594 2537.871094 2589.578125 2623.101562 "/>
<g clip-path="url(#clip-3)">
<g clip-path="url(#clip-4)">
<g clip-path="url(#clip-5)">
<path fill-rule="nonzero" fill="url(#linear-pattern-1)" d="M 2081.96875 2157.867188 L 2595.8125 2254.210938 L 2700.75 1694.53125 L 2186.910156 1598.1875 Z M 2081.96875 2157.867188 "/>
</g>
</g>
</g>
<g clip-path="url(#clip-6)">
<g clip-path="url(#clip-7)">
<g clip-path="url(#clip-8)">
<path fill-rule="nonzero" fill="url(#linear-pattern-2)" d="M 2204.046875 2766.042969 L 2188.550781 2104.027344 L 1679.820312 2115.9375 L 1695.320312 2777.953125 Z M 2204.046875 2766.042969 "/>
</g>
</g>
</g>
<g clip-path="url(#clip-9)">
<g clip-path="url(#clip-10)">
<g clip-path="url(#clip-11)">
<path fill-rule="nonzero" fill="url(#linear-pattern-3)" d="M 2093.707031 2163.238281 L 2197.925781 2872.910156 L 2715.300781 2796.933594 L 2611.082031 2087.257812 Z M 2093.707031 2163.238281 "/>
</g>
</g>
</g>
<path fill-rule="nonzero" fill="rgb(38.818359%, 23.925781%, 7.835388%)" fill-opacity="1" d="M 1150.921875 309.078125 L 1279.210938 309.078125 L 1299.800781 877.699219 L 1361.570312 1210.320312 L 503.097656 1308.519531 L 446.078125 1196.070312 L 427.070312 1175.480469 L 363.714844 1181.808594 L 368.464844 822.261719 L 894.320312 427.871094 L 1150.921875 309.078125 "/>
<path fill-rule="nonzero" fill="rgb(45.483398%, 80.46875%, 80.46875%)" fill-opacity="1" d="M 1313.269531 1185.96875 C 1313.269531 1185.96875 1286.46875 1189.179688 1242.308594 1194.441406 C 1041.359375 1218.300781 481.160156 1284.171875 454.070312 1279.890625 C 453.089844 1279.730469 451.996094 1278.828125 450.800781 1277.238281 C 445.078125 1269.570312 437.035156 1245.820312 427.5 1210.878906 C 416.519531 1170.710938 403.53125 1115.738281 389.78125 1053.449219 C 378.5 1002.308594 366.6875 946.21875 355.042969 889.320312 C 309.414062 666.46875 266.226562 431.121094 266.226562 431.121094 L 289.5 427.371094 L 389.359375 411.300781 L 1184.570312 283.28125 L 1260.558594 816.21875 L 1313.269531 1185.96875 "/>
<path fill-rule="nonzero" fill="rgb(28.24707%, 60.742188%, 59.959412%)" fill-opacity="1" d="M 1313.269531 1185.96875 C 1313.269531 1185.96875 1286.46875 1189.179688 1242.308594 1194.441406 C 1214.890625 1189.511719 1179.078125 1185.980469 1135.488281 1187.628906 C 1039.671875 1191.28125 577.019531 1258.660156 450.800781 1277.238281 C 445.078125 1269.570312 437.035156 1245.820312 427.5 1210.878906 L 435.816406 1190.449219 L 483.679688 1114.429688 L 544.21875 1046.851562 L 728.644531 935.640625 L 1260.558594 816.21875 L 1313.269531 1185.96875 "/>
<path fill-rule="nonzero" fill="rgb(28.24707%, 60.742188%, 59.959412%)" fill-opacity="1" d="M 389.78125 1053.449219 C 378.5 1002.308594 366.6875 946.21875 355.042969 889.320312 C 343.707031 725.421875 301.066406 489.460938 289.5 427.371094 L 389.359375 411.300781 L 427.363281 497.808594 C 427.363281 497.808594 517.46875 699.128906 556.890625 834.28125 C 586.429688 935.539062 453.933594 1063.679688 389.78125 1053.449219 "/>
<path fill-rule="nonzero" fill="rgb(96.875%, 83.984375%, 32.151794%)" fill-opacity="1" d="M 1194.238281 1169.441406 L 1066 1179.820312 L 401.390625 1233.570312 L 398.90625 1208.128906 L 388.195312 1098.320312 L 379.015625 1004.25 L 352.925781 736.800781 L 315.886719 357.148438 L 344.367188 354.410156 L 388.574219 350.140625 L 523.859375 337.089844 L 871.910156 303.511719 L 1141.78125 277.480469 L 1144.261719 319.679688 L 1158.199219 556.648438 L 1185.691406 1024 L 1194.238281 1169.441406 "/>
<path fill-rule="nonzero" fill="rgb(87.889099%, 75.389099%, 23.143005%)" fill-opacity="1" d="M 530.742188 930.320312 C 521.9375 995.53125 433.128906 1043.960938 379.015625 1004.25 L 352.925781 736.800781 C 368.613281 546.269531 349.246094 389.308594 344.367188 354.410156 L 388.574219 350.140625 L 389.117188 351.328125 L 439.109375 458.238281 L 475.214844 556.820312 C 475.214844 556.820312 544.628906 827.570312 530.742188 930.320312 "/>
<path fill-rule="nonzero" fill="rgb(87.889099%, 75.389099%, 23.143005%)" fill-opacity="1" d="M 1194.238281 1169.441406 L 1066 1179.820312 C 748.253906 1155.148438 489.71875 1192.019531 398.90625 1208.128906 L 388.195312 1098.320312 L 489.089844 1066.378906 L 608.496094 1035.839844 L 1185.691406 1024 L 1194.238281 1169.441406 "/>
<path fill-rule="nonzero" fill="rgb(87.889099%, 75.389099%, 23.143005%)" fill-opacity="1" d="M 1158.199219 556.648438 C 1141.53125 563.960938 1124.730469 568.070312 1108.699219 567.859375 C 982.691406 566.179688 742.453125 473.789062 742.453125 473.789062 L 574.457031 408.269531 L 520.695312 367.941406 L 523.859375 337.089844 L 871.910156 303.511719 C 947.101562 312.878906 1046.390625 321.660156 1144.261719 319.679688 L 1158.199219 556.648438 "/>
<path fill-rule="nonzero" fill="rgb(100%, 100%, 100%)" fill-opacity="1" d="M 1258.660156 331.488281 L 371.59375 333.25 L 373.359375 1155.070312 L 1271.011719 1156.828125 L 1258.660156 331.488281 "/>
<path fill-rule="nonzero" fill="rgb(66.601562%, 66.601562%, 66.601562%)" fill-opacity="1" d="M 414.222656 431.949219 C 410.855469 431.949219 408.121094 429.230469 408.113281 425.859375 C 408.105469 422.480469 410.835938 419.738281 414.210938 419.730469 L 1208.039062 417.859375 L 1208.050781 417.859375 C 1211.421875 417.859375 1214.148438 420.578125 1214.160156 423.949219 C 1214.171875 427.328125 1211.441406 430.070312 1208.070312 430.078125 L 414.238281 431.949219 C 414.234375 431.949219 414.226562 431.949219 414.222656 431.949219 "/>
<path fill-rule="nonzero" fill="rgb(66.601562%, 66.601562%, 66.601562%)" fill-opacity="1" d="M 414.222656 540.539062 C 410.855469 540.539062 408.121094 537.820312 408.113281 534.441406 C 408.105469 531.070312 410.835938 528.328125 414.210938 528.320312 L 1208.039062 526.449219 L 1208.050781 526.449219 C 1211.421875 526.449219 1214.148438 529.171875 1214.160156 532.539062 C 1214.171875 535.921875 1211.441406 538.660156 1208.070312 538.671875 L 414.238281 540.539062 C 414.234375 540.539062 414.226562 540.539062 414.222656 540.539062 "/>
<path fill-rule="nonzero" fill="rgb(66.601562%, 66.601562%, 66.601562%)" fill-opacity="1" d="M 414.222656 649.128906 C 410.855469 649.128906 408.121094 646.410156 408.113281 643.03125 C 408.105469 639.660156 410.835938 636.921875 414.210938 636.910156 L 1208.039062 635.039062 L 1208.050781 635.039062 C 1211.421875 635.039062 1214.148438 637.761719 1214.160156 641.128906 C 1214.171875 644.511719 1211.441406 647.25 1208.070312 647.261719 L 414.238281 649.128906 C 414.234375 649.128906 414.226562 649.128906 414.222656 649.128906 "/>
<path fill-rule="nonzero" fill="rgb(66.601562%, 66.601562%, 66.601562%)" fill-opacity="1" d="M 414.222656 757.71875 C 410.855469 757.71875 408.121094 754.988281 408.113281 751.621094 C 408.105469 748.25 410.835938 745.511719 414.210938 745.5 L 1208.039062 743.628906 L 1208.050781 743.628906 C 1211.421875 743.628906 1214.148438 746.351562 1214.160156 749.71875 C 1214.171875 753.101562 1211.441406 755.839844 1208.070312 755.851562 L 414.238281 757.71875 C 414.234375 757.71875 414.226562 757.71875 414.222656 757.71875 "/>
<path fill-rule="nonzero" fill="rgb(66.601562%, 66.601562%, 66.601562%)" fill-opacity="1" d="M 414.222656 866.308594 C 410.855469 866.308594 408.121094 863.589844 408.113281 860.210938 C 408.105469 856.839844 410.835938 854.101562 414.210938 854.089844 L 1208.039062 852.21875 L 1208.050781 852.21875 C 1211.421875 852.21875 1214.148438 854.941406 1214.160156 858.308594 C 1214.171875 861.691406 1211.441406 864.429688 1208.070312 864.441406 L 414.238281 866.308594 C 414.234375 866.308594 414.226562 866.308594 414.222656 866.308594 "/>
<path fill-rule="nonzero" fill="rgb(66.601562%, 66.601562%, 66.601562%)" fill-opacity="1" d="M 414.222656 974.898438 C 410.855469 974.898438 408.121094 972.171875 408.113281 968.800781 C 408.105469 965.429688 410.835938 962.691406 414.210938 962.679688 L 1208.039062 960.808594 L 1208.050781 960.808594 C 1211.421875 960.808594 1214.148438 963.53125 1214.160156 966.898438 C 1214.171875 970.28125 1211.441406 973.019531 1208.070312 973.03125 L 414.238281 974.898438 C 414.234375 974.898438 414.226562 974.898438 414.222656 974.898438 "/>
<path fill-rule="nonzero" fill="rgb(66.601562%, 66.601562%, 66.601562%)" fill-opacity="1" d="M 414.222656 1083.488281 C 410.855469 1083.488281 408.121094 1080.761719 408.113281 1077.390625 C 408.105469 1074.019531 410.835938 1071.28125 414.210938 1071.269531 L 1208.039062 1069.398438 L 1208.050781 1069.398438 C 1211.421875 1069.398438 1214.148438 1072.121094 1214.160156 1075.488281 C 1214.171875 1078.871094 1211.441406 1081.609375 1208.070312 1081.621094 L 414.238281 1083.488281 C 414.234375 1083.488281 414.226562 1083.488281 414.222656 1083.488281 "/>
<path fill-rule="nonzero" fill="rgb(66.601562%, 66.601562%, 66.601562%)" fill-opacity="1" d="M 1137.960938 240.449219 C 1136.511719 233.558594 1130.941406 228.109375 1121.429688 224.210938 C 1104.671875 217.371094 1066.550781 212.96875 1054.71875 220.859375 C 1048.96875 224.699219 1044.511719 232.519531 1040.101562 259.660156 C 1037.808594 273.738281 1036.601562 286.890625 1036.539062 287.449219 L 1040.121094 287.78125 L 1059.589844 285.898438 C 1061.609375 266.160156 1065.261719 246.398438 1068.050781 239.960938 C 1071.890625 239.351562 1080.769531 239.058594 1092.441406 240.570312 C 1106.078125 242.328125 1113.109375 245.160156 1115.699219 246.691406 C 1115.808594 252.21875 1114.96875 264.570312 1113.511719 280.691406 C 1108.589844 334.839844 1096.699219 431.441406 1090.53125 454.171875 C 1083.808594 454.328125 1071.609375 452.699219 1064.460938 450.921875 C 1064.378906 435.03125 1070.070312 387.230469 1076.378906 344.828125 L 1053.839844 341.480469 C 1053.800781 341.769531 1049.570312 370.179688 1046.179688 398.660156 C 1044.160156 415.5 1042.820312 429.121094 1042.179688 439.121094 C 1041.078125 456.539062 1041.390625 465.210938 1048.988281 469.441406 C 1054.691406 472.589844 1073.839844 476.898438 1088.800781 476.898438 C 1094.351562 476.898438 1099.308594 476.308594 1102.808594 474.851562 C 1109.171875 472.210938 1111.210938 465.488281 1113.21875 457 C 1114.648438 451.011719 1116.25 442.601562 1118 431.960938 C 1121.898438 408.121094 1125.640625 378.890625 1128.078125 358.558594 C 1128.410156 355.769531 1133.628906 312.210938 1136.5 278.480469 C 1138.039062 260.300781 1138.898438 244.980469 1137.960938 240.449219 "/>
<path fill-rule="nonzero" fill="rgb(28.24707%, 60.742188%, 59.959412%)" fill-opacity="1" d="M 1132.871094 240.449219 C 1131.421875 233.558594 1125.851562 228.109375 1116.339844 224.210938 C 1099.578125 217.371094 1061.460938 212.96875 1049.640625 220.859375 C 1043.878906 224.699219 1039.429688 232.519531 1035.019531 259.660156 C 1032.730469 273.738281 1031.511719 286.890625 1031.449219 287.449219 L 1035.03125 287.78125 L 1054.5 285.898438 C 1056.53125 266.160156 1060.171875 246.398438 1062.96875 239.960938 C 1066.800781 239.351562 1075.679688 239.058594 1087.359375 240.570312 C 1100.988281 242.328125 1108.019531 245.160156 1110.609375 246.691406 C 1110.71875 252.21875 1109.878906 264.570312 1108.421875 280.691406 C 1103.5 334.839844 1091.621094 431.441406 1085.441406 454.171875 C 1078.71875 454.328125 1066.519531 452.699219 1059.378906 450.921875 C 1059.300781 435.03125 1064.980469 387.230469 1071.289062 344.828125 L 1048.761719 341.480469 C 1048.710938 341.769531 1044.488281 370.179688 1041.089844 398.660156 C 1039.070312 415.5 1037.730469 429.121094 1037.089844 439.121094 C 1036 456.539062 1036.308594 465.210938 1043.910156 469.441406 C 1049.601562 472.589844 1068.75 476.898438 1083.710938 476.898438 C 1089.261719 476.898438 1094.230469 476.308594 1097.71875 474.851562 C 1104.078125 472.210938 1106.121094 465.488281 1108.140625 457 C 1109.558594 451.011719 1111.171875 442.601562 1112.910156 431.960938 C 1116.820312 408.121094 1120.558594 378.890625 1122.988281 358.558594 C 1123.320312 355.769531 1128.539062 312.210938 1131.410156 278.480469 C 1132.949219 260.300781 1133.820312 244.980469 1132.871094 240.449219 "/>
<path fill-rule="nonzero" fill="rgb(38.818359%, 23.925781%, 7.835388%)" fill-opacity="1" d="M 1830.980469 1356.621094 L 2562.371094 1366.699219 L 2549.511719 304.089844 L 2161 504.78125 L 1978.320312 1119.699219 L 1830.980469 1356.621094 "/>
<path fill-rule="nonzero" fill="rgb(96.875%, 83.984375%, 32.151794%)" fill-opacity="1" d="M 2540.738281 255.808594 L 2540.738281 1344.101562 L 1748.429688 1344.101562 L 1748.429688 1254.449219 L 1766.800781 1254.449219 C 1768.859375 1262.910156 1776.488281 1269.191406 1785.589844 1269.191406 C 1796.261719 1269.191406 1804.921875 1260.53125 1804.921875 1249.859375 C 1804.921875 1239.179688 1796.261719 1230.519531 1785.589844 1230.519531 C 1776.488281 1230.519531 1768.859375 1236.808594 1766.800781 1245.269531 L 1748.429688 1245.269531 L 1748.429688 1151.988281 L 1766.800781 1151.988281 C 1768.859375 1160.460938 1776.488281 1166.738281 1785.589844 1166.738281 C 1796.261719 1166.738281 1804.921875 1158.078125 1804.921875 1147.398438 C 1804.921875 1136.730469 1796.261719 1128.070312 1785.589844 1128.070312 C 1776.488281 1128.070312 1768.859375 1134.351562 1766.800781 1142.820312 L 1748.429688 1142.820312 L 1748.429688 1049.539062 L 1766.800781 1049.539062 C 1768.859375 1058 1776.488281 1064.28125 1785.589844 1064.28125 C 1796.261719 1064.28125 1804.921875 1055.628906 1804.921875 1044.949219 C 1804.921875 1034.269531 1796.261719 1025.609375 1785.589844 1025.609375 C 1776.488281 1025.609375 1768.859375 1031.898438 1766.800781 1040.359375 L 1748.429688 1040.359375 L 1748.429688 947.078125 L 1766.800781 947.078125 C 1768.859375 955.550781 1776.488281 961.828125 1785.589844 961.828125 C 1796.261719 961.828125 1804.921875 953.171875 1804.921875 942.488281 C 1804.921875 931.820312 1796.261719 923.160156 1785.589844 923.160156 C 1776.488281 923.160156 1768.859375 929.441406 1766.800781 937.910156 L 1748.429688 937.910156 L 1748.429688 844.628906 L 1766.800781 844.628906 C 1768.859375 853.101562 1776.488281 859.371094 1785.589844 859.371094 C 1796.261719 859.371094 1804.921875 850.71875 1804.921875 840.039062 C 1804.921875 829.359375 1796.261719 820.699219 1785.589844 820.699219 C 1776.488281 820.699219 1768.859375 826.988281 1766.800781 835.449219 L 1748.429688 835.449219 L 1748.429688 742.171875 L 1766.800781 742.171875 C 1768.859375 750.640625 1776.488281 756.921875 1785.589844 756.921875 C 1796.261719 756.921875 1804.921875 748.261719 1804.921875 737.589844 C 1804.921875 726.910156 1796.261719 718.25 1785.589844 718.25 C 1776.488281 718.25 1768.859375 724.53125 1766.800781 733 L 1748.429688 733 L 1748.429688 639.71875 L 1766.800781 639.71875 C 1768.859375 648.191406 1776.488281 654.46875 1785.589844 654.46875 C 1796.261719 654.46875 1804.921875 645.808594 1804.921875 635.128906 C 1804.921875 624.460938 1796.261719 615.800781 1785.589844 615.800781 C 1776.488281 615.800781 1768.859375 622.078125 1766.800781 630.539062 L 1748.429688 630.539062 L 1748.429688 537.269531 L 1766.800781 537.269531 C 1768.859375 545.730469 1776.488281 552.011719 1785.589844 552.011719 C 1796.261719 552.011719 1804.921875 543.359375 1804.921875 532.679688 C 1804.921875 522 1796.261719 513.339844 1785.589844 513.339844 C 1776.488281 513.339844 1768.859375 519.621094 1766.800781 528.089844 L 1748.429688 528.089844 L 1748.429688 434.808594 L 1766.800781 434.808594 C 1768.859375 443.28125 1776.488281 449.558594 1785.589844 449.558594 C 1796.261719 449.558594 1804.921875 440.898438 1804.921875 430.230469 C 1804.921875 419.550781 1796.261719 410.890625 1785.589844 410.890625 C 1776.488281 410.890625 1768.859375 417.171875 1766.800781 425.640625 L 1748.429688 425.640625 L 1748.429688 332.359375 L 1766.800781 332.359375 C 1768.859375 340.820312 1776.488281 347.109375 1785.589844 347.109375 C 1796.261719 347.109375 1804.921875 338.449219 1804.921875 327.769531 C 1804.921875 317.089844 1796.261719 308.429688 1785.589844 308.429688 C 1776.488281 308.429688 1768.859375 314.71875 1766.800781 323.179688 L 1748.429688 323.179688 L 1748.429688 255.808594 L 2540.738281 255.808594 "/>
<path fill-rule="nonzero" fill="rgb(82.03125%, 69.726562%, 18.821716%)" fill-opacity="1" d="M 2540.738281 315.710938 L 2540.738281 354.339844 L 2361.371094 255.808594 L 2450.179688 255.808594 L 2452.53125 256.398438 L 2540.738281 315.710938 "/>
<path fill-rule="nonzero" fill="rgb(100%, 77.734375%, 55.271912%)" fill-opacity="1" d="M 2621.941406 355.230469 L 2599.941406 359.789062 L 2603.730469 385.589844 L 2541.21875 347.550781 L 2390.410156 255.769531 L 2355.558594 234.558594 L 2376.050781 230.011719 L 2391.988281 225.460938 L 2394.269531 214.828125 L 2409.441406 216.351562 L 2406.410156 201.171875 L 2512.539062 255.449219 L 2540.058594 269.53125 L 2637.878906 319.558594 L 2646.230469 336.261719 L 2612.839844 336.261719 L 2621.941406 355.230469 "/>
<g clip-path="url(#clip-12)">
<g clip-path="url(#clip-13)">
<g clip-path="url(#clip-14)">
<path fill-rule="nonzero" fill="url(#linear-pattern-4)" d="M 2511.378906 187.71875 L 2350.882812 201.574219 L 2356.722656 269.222656 L 2517.21875 255.367188 Z M 2511.378906 187.71875 "/>
</g>
</g>
</g>
<g clip-path="url(#clip-15)">
<g clip-path="url(#clip-16)">
<g clip-path="url(#clip-17)">
<path fill-rule="nonzero" fill="url(#linear-pattern-5)" d="M 2647.59375 385.574219 L 2646.214844 268.28125 L 2538.695312 269.546875 L 2540.074219 386.839844 Z M 2647.59375 385.574219 "/>
</g>
</g>
</g>
<path fill-rule="nonzero" fill="rgb(82.03125%, 69.726562%, 18.821716%)" fill-opacity="1" d="M 1747.859375 1292.121094 L 1747.859375 1257.421875 L 1908.96875 1345.921875 L 1829.199219 1345.921875 L 1827.089844 1345.398438 L 1747.859375 1292.121094 "/>
<path fill-rule="nonzero" fill="rgb(100%, 77.734375%, 55.271912%)" fill-opacity="1" d="M 1674.921875 1256.621094 L 1694.691406 1252.53125 L 1691.28125 1229.351562 L 1747.421875 1263.519531 L 1882.890625 1345.960938 L 1914.191406 1365.011719 L 1895.789062 1369.101562 L 1881.46875 1373.191406 L 1879.429688 1382.730469 L 1865.789062 1381.371094 L 1868.519531 1395 L 1773.191406 1346.25 L 1748.46875 1333.601562 L 1660.601562 1288.660156 L 1653.109375 1273.660156 L 1683.101562 1273.660156 L 1674.921875 1256.621094 "/>
<g clip-path="url(#clip-18)">
<g clip-path="url(#clip-19)">
<g clip-path="url(#clip-20)">
<path fill-rule="nonzero" fill="url(#linear-pattern-6)" d="M 1774.234375 1407.082031 L 1918.390625 1394.636719 L 1913.148438 1333.878906 L 1768.988281 1346.324219 Z M 1774.234375 1407.082031 "/>
</g>
</g>
</g>
<g clip-path="url(#clip-21)">
<g clip-path="url(#clip-22)">
<g clip-path="url(#clip-23)">
<path fill-rule="nonzero" fill="url(#linear-pattern-7)" d="M 1651.882812 1229.363281 L 1653.125 1334.722656 L 1749.695312 1333.585938 L 1748.457031 1228.226562 Z M 1651.882812 1229.363281 "/>
</g>
</g>
</g>
<path fill-rule="nonzero" fill="rgb(38.818359%, 23.925781%, 7.835388%)" fill-opacity="1" d="M 1966.550781 357.140625 C 1965.019531 357.179688 1963.460938 357.101562 1961.871094 356.910156 C 1960.269531 356.710938 1958.898438 356.351562 1957.761719 355.808594 C 1956.609375 355.269531 1955.96875 354.449219 1955.839844 353.371094 C 1955.78125 352.289062 1956.109375 351.429688 1956.851562 350.789062 C 1957.578125 350.148438 1958.460938 349.660156 1959.480469 349.308594 C 1960.488281 348.960938 1961.800781 348.691406 1963.390625 348.5 L 1990.148438 346.011719 C 1991.941406 345.949219 1993.421875 345.980469 1994.601562 346.109375 C 1995.78125 346.230469 1996.839844 346.539062 1997.800781 347.011719 C 1998.75 347.488281 1999.261719 348.238281 1999.328125 349.261719 C 1999.449219 350.28125 1999.148438 351.121094 1998.421875 351.789062 C 1997.691406 352.460938 1996.808594 353 1995.789062 353.421875 C 1994.769531 353.828125 1993.5 354.199219 1991.96875 354.519531 L 1985.851562 355.46875 C 1986.109375 357.070312 1986.390625 359.308594 1986.710938 362.210938 C 1987.03125 365.109375 1987.351562 368.308594 1987.671875 371.808594 C 1987.988281 375.320312 1988.269531 378.761719 1988.53125 382.140625 C 1988.78125 385.511719 1988.988281 388.539062 1989.148438 391.210938 C 1989.308594 393.890625 1989.390625 395.800781 1989.390625 396.949219 C 1989.390625 398.410156 1988.988281 399.511719 1988.191406 400.25 C 1987.398438 400.980469 1986.46875 401.488281 1985.421875 401.769531 C 1984.371094 402.058594 1983.050781 402.238281 1981.460938 402.300781 C 1979.800781 402.238281 1978.449219 401.980469 1977.398438 401.539062 C 1976.339844 401.089844 1975.421875 400.261719 1974.621094 399.050781 C 1973.828125 397.839844 1973.429688 396.03125 1973.429688 393.601562 C 1973.429688 391.441406 1973.320312 388.789062 1973.089844 385.671875 C 1972.871094 382.550781 1972.601562 379.320312 1972.28125 375.96875 C 1971.960938 372.628906 1971.628906 369.519531 1971.28125 366.648438 C 1970.929688 363.789062 1970.53125 360.539062 1970.078125 356.910156 C 1969.261719 357.03125 1968.078125 357.109375 1966.550781 357.140625 "/>
<path fill-rule="nonzero" fill="rgb(38.818359%, 23.925781%, 7.835388%)" fill-opacity="1" d="M 2024.460938 372.859375 C 2022.871094 374.910156 2021.671875 376.851562 2020.878906 378.691406 C 2020.078125 380.539062 2019.679688 382.710938 2019.679688 385.191406 C 2019.679688 387.621094 2019.96875 389.53125 2020.539062 390.929688 C 2021.121094 392.328125 2021.738281 393.328125 2022.410156 393.941406 C 2023.078125 394.539062 2023.601562 394.851562 2023.980469 394.851562 C 2024.371094 394.851562 2024.988281 394.671875 2025.851562 394.320312 C 2026.710938 393.96875 2027.488281 393.160156 2028.191406 391.878906 C 2028.890625 390.609375 2029.210938 388.601562 2029.140625 385.859375 C 2029.078125 383.570312 2028.839844 381.71875 2028.429688 380.320312 C 2028.011719 378.921875 2027.46875 377.660156 2026.800781 376.539062 C 2026.128906 375.429688 2025.351562 374.199219 2024.460938 372.859375 Z M 2029.53125 364.261719 C 2030.800781 364.96875 2031.570312 365.378906 2031.820312 365.511719 C 2032.460938 365.828125 2033.320312 366.371094 2034.398438 367.128906 C 2036.308594 367.769531 2037.898438 368.679688 2039.179688 369.859375 C 2040.449219 371.03125 2041.628906 372.859375 2042.71875 375.351562 C 2043.800781 377.828125 2044.441406 381.210938 2044.628906 385.480469 C 2044.75 388.351562 2044.308594 390.75 2043.289062 392.699219 C 2042.269531 394.640625 2040.910156 396.230469 2039.230469 397.46875 C 2037.539062 398.71875 2035.71875 399.671875 2033.78125 400.339844 C 2031.839844 401.011719 2029.988281 401.46875 2028.238281 401.730469 C 2026.480469 401.980469 2024.488281 402.171875 2022.261719 402.300781 C 2019.78125 402.300781 2017.609375 402.089844 2015.769531 401.679688 C 2013.921875 401.261719 2012.089844 400.441406 2010.269531 399.191406 C 2008.449219 397.949219 2006.960938 396.121094 2005.78125 393.699219 C 2004.601562 391.28125 2004.070312 388.058594 2004.199219 384.050781 C 2004.328125 380.03125 2005.078125 376.738281 2006.449219 374.160156 C 2007.820312 371.570312 2009.46875 369.550781 2011.421875 368.089844 C 2013.359375 366.621094 2015.300781 365.570312 2017.25 364.929688 C 2019.191406 364.300781 2021.46875 363.820312 2024.078125 363.5 C 2026.441406 363.308594 2028.25 363.558594 2029.53125 364.261719 "/>
<path fill-rule="nonzero" fill="rgb(38.818359%, 23.925781%, 7.835388%)" fill-opacity="1" d="M 2086.960938 355.46875 L 2091.171875 394.179688 C 2092.308594 394.050781 2093.320312 393.730469 2094.179688 393.21875 C 2095.039062 392.710938 2095.859375 391.789062 2096.660156 390.449219 C 2097.460938 389.109375 2098.078125 387.21875 2098.519531 384.761719 C 2098.96875 382.308594 2099.070312 379.109375 2098.808594 375.160156 C 2098.558594 370.191406 2098.03125 366.320312 2097.230469 363.550781 C 2096.441406 360.78125 2095.480469 358.789062 2094.371094 357.570312 C 2093.25 356.359375 2092.058594 355.660156 2090.78125 355.46875 C 2089.511719 355.28125 2088.230469 355.28125 2086.960938 355.46875 Z M 2075.878906 384.289062 C 2075.558594 380.179688 2075.25 376.238281 2074.96875 372.480469 C 2074.679688 368.71875 2074.441406 365.519531 2074.25 362.878906 C 2074.058594 360.238281 2073.898438 358.53125 2073.769531 357.769531 C 2073.578125 356.300781 2073.839844 355.03125 2074.539062 353.941406 C 2073.640625 352.988281 2073.199219 352.21875 2073.199219 351.648438 C 2073.199219 350.628906 2073.820312 349.800781 2075.058594 349.160156 C 2076.308594 348.53125 2077.71875 348.050781 2079.320312 347.730469 C 2080.910156 347.410156 2082.949219 347.128906 2085.429688 346.871094 C 2087.980469 346.738281 2090.261719 346.78125 2092.261719 346.96875 C 2094.269531 347.160156 2096.441406 347.648438 2098.761719 348.449219 C 2101.089844 349.25 2103.320312 350.5 2105.449219 352.21875 C 2107.589844 353.941406 2109.390625 356.28125 2110.851562 359.25 C 2112.320312 362.210938 2113.210938 365.980469 2113.53125 370.570312 C 2113.910156 375.988281 2113.671875 380.539062 2112.808594 384.238281 C 2111.949219 387.929688 2110.679688 390.941406 2108.988281 393.269531 C 2107.300781 395.601562 2105.371094 397.390625 2103.210938 398.671875 C 2101.039062 399.941406 2098.789062 400.820312 2096.46875 401.300781 C 2094.140625 401.769531 2091.949219 402.058594 2089.878906 402.160156 C 2087.800781 402.25 2086.011719 402.300781 2084.480469 402.300781 C 2082.25 402.300781 2080.570312 401.980469 2079.460938 401.339844 C 2078.339844 400.710938 2077.609375 399.988281 2077.261719 399.191406 C 2076.910156 398.398438 2076.738281 397.359375 2076.738281 396.089844 C 2076.480469 392.328125 2076.191406 388.390625 2075.878906 384.289062 "/>
<path fill-rule="nonzero" fill="rgb(38.818359%, 23.925781%, 7.835388%)" fill-opacity="1" d="M 2138.660156 372.859375 C 2137.070312 374.910156 2135.871094 376.851562 2135.078125 378.691406 C 2134.28125 380.539062 2133.878906 382.710938 2133.878906 385.191406 C 2133.878906 387.621094 2134.171875 389.53125 2134.738281 390.929688 C 2135.320312 392.328125 2135.941406 393.328125 2136.609375 393.941406 C 2137.28125 394.539062 2137.800781 394.851562 2138.179688 394.851562 C 2138.570312 394.851562 2139.191406 394.671875 2140.050781 394.320312 C 2140.910156 393.96875 2141.691406 393.160156 2142.390625 391.878906 C 2143.089844 390.609375 2143.410156 388.601562 2143.339844 385.859375 C 2143.28125 383.570312 2143.039062 381.71875 2142.628906 380.320312 C 2142.210938 378.921875 2141.671875 377.660156 2141 376.539062 C 2140.328125 375.429688 2139.550781 374.199219 2138.660156 372.859375 Z M 2143.730469 364.261719 C 2145 364.96875 2145.769531 365.378906 2146.019531 365.511719 C 2146.660156 365.828125 2147.519531 366.371094 2148.601562 367.128906 C 2150.511719 367.769531 2152.101562 368.679688 2153.378906 369.859375 C 2154.648438 371.03125 2155.828125 372.859375 2156.921875 375.351562 C 2158 377.828125 2158.640625 381.210938 2158.828125 385.480469 C 2158.949219 388.351562 2158.511719 390.75 2157.488281 392.699219 C 2156.46875 394.640625 2155.109375 396.230469 2153.429688 397.46875 C 2151.738281 398.71875 2149.921875 399.671875 2147.980469 400.339844 C 2146.039062 401.011719 2144.191406 401.46875 2142.441406 401.730469 C 2140.679688 401.980469 2138.691406 402.171875 2136.460938 402.300781 C 2133.980469 402.300781 2131.808594 402.089844 2129.96875 401.679688 C 2128.121094 401.261719 2126.289062 400.441406 2124.46875 399.191406 C 2122.648438 397.949219 2121.160156 396.121094 2119.980469 393.699219 C 2118.800781 391.28125 2118.269531 388.058594 2118.398438 384.050781 C 2118.53125 380.03125 2119.28125 376.738281 2120.648438 374.160156 C 2122.019531 371.570312 2123.671875 369.550781 2125.621094 368.089844 C 2127.558594 366.621094 2129.5 365.570312 2131.449219 364.929688 C 2133.390625 364.300781 2135.671875 363.820312 2138.28125 363.5 C 2140.640625 363.308594 2142.449219 363.558594 2143.730469 364.261719 "/>
<path fill-rule="nonzero" fill="rgb(38.818359%, 23.925781%, 7.835388%)" fill-opacity="1" d="M 2208.230469 388.921875 C 2208.300781 388.921875 2208.871094 388.910156 2209.949219 388.871094 C 2211.039062 388.839844 2212.371094 388.808594 2213.96875 388.78125 C 2215.558594 388.75 2217.140625 388.710938 2218.699219 388.679688 C 2220.261719 388.648438 2222.121094 388.601562 2224.289062 388.539062 C 2225.691406 388.539062 2226.871094 388.648438 2227.820312 388.871094 C 2228.78125 389.101562 2229.621094 389.558594 2230.359375 390.261719 C 2231.089844 390.960938 2231.488281 392.039062 2231.550781 393.511719 C 2231.609375 394.910156 2231.21875 396.011719 2230.359375 396.808594 C 2229.5 397.601562 2228.480469 398.140625 2227.300781 398.429688 C 2226.121094 398.71875 2224.609375 398.921875 2222.761719 399.050781 C 2220.148438 399.238281 2217.789062 399.46875 2215.691406 399.71875 C 2213.589844 399.96875 2211.289062 400.308594 2208.808594 400.71875 C 2206.320312 401.140625 2203.929688 401.660156 2201.640625 402.300781 C 2199.351562 402.941406 2197.449219 403.171875 2195.949219 403.019531 C 2194.460938 402.859375 2193.289062 402.511719 2192.46875 401.96875 C 2191.640625 401.421875 2191.050781 400.851562 2190.699219 400.25 C 2190.351562 399.640625 2190.171875 399.238281 2190.171875 399.050781 C 2190.109375 398.609375 2190.230469 398.050781 2190.550781 397.378906 C 2190.871094 396.710938 2191.480469 396.25 2192.371094 395.988281 C 2192.691406 395.929688 2192.851562 395.019531 2192.851562 393.269531 C 2192.851562 391.519531 2192.738281 389.261719 2192.511719 386.480469 C 2192.289062 383.710938 2191.988281 380.699219 2191.601562 377.449219 C 2191.21875 374.199219 2190.789062 370.988281 2190.308594 367.800781 C 2189.839844 364.609375 2189.371094 361.78125 2188.929688 359.289062 C 2188.480469 356.808594 2188.039062 354.960938 2187.589844 353.75 C 2186.949219 351.910156 2186.890625 350.46875 2187.398438 349.449219 C 2187.910156 348.429688 2188.628906 347.679688 2189.550781 347.210938 C 2190.46875 346.730469 2191.730469 346.359375 2193.320312 346.109375 C 2195.050781 345.921875 2196.488281 345.929688 2197.671875 346.160156 C 2198.851562 346.378906 2199.96875 346.921875 2201.019531 347.78125 C 2202.070312 348.640625 2202.820312 350.058594 2203.261719 352.03125 C 2203.839844 354.640625 2204.519531 357.71875 2205.320312 361.25 C 2206.109375 364.789062 2206.808594 368.851562 2207.421875 373.441406 C 2208.03125 378.03125 2208.300781 383.191406 2208.230469 388.921875 "/>
<path fill-rule="nonzero" fill="rgb(38.818359%, 23.925781%, 7.835388%)" fill-opacity="1" d="M 2236.710938 374.589844 C 2236.140625 373.25 2235.789062 372.449219 2235.660156 372.199219 C 2235.601562 372.011719 2235.480469 371.609375 2235.328125 371 C 2235.171875 370.398438 2235.328125 369.738281 2235.800781 369.039062 C 2236.28125 368.339844 2237.351562 367.828125 2239.011719 367.511719 C 2240.730469 367.199219 2242.511719 367.101562 2244.359375 367.230469 C 2246.210938 367.359375 2247.851562 367.910156 2249.28125 368.898438 C 2250.710938 369.890625 2251.589844 371.589844 2251.910156 374.011719 C 2252.160156 375.800781 2252.421875 377.921875 2252.671875 380.371094 C 2252.929688 382.820312 2253.171875 385.210938 2253.390625 387.53125 C 2253.609375 389.859375 2253.878906 392.578125 2254.199219 395.710938 C 2254.328125 397.039062 2254.261719 398.140625 2254.011719 399 C 2253.75 399.859375 2253.128906 400.628906 2252.148438 401.300781 C 2251.160156 401.96875 2249.578125 402.300781 2247.421875 402.300781 C 2245.25 402.300781 2243.589844 402 2242.449219 401.390625 C 2241.300781 400.789062 2240.488281 400.101562 2240.011719 399.339844 C 2239.53125 398.570312 2239.199219 397.589844 2239.011719 396.371094 Z M 2238.191406 361.441406 C 2237.078125 361.101562 2236.070312 360.441406 2235.179688 359.488281 C 2234.289062 358.53125 2233.808594 357.101562 2233.75 355.191406 C 2233.691406 353.269531 2233.96875 351.859375 2234.609375 350.929688 C 2235.25 350.011719 2236.039062 349.371094 2237 349.019531 C 2237.949219 348.671875 2238.878906 348.480469 2239.769531 348.449219 C 2240.660156 348.421875 2241.300781 348.371094 2241.679688 348.308594 C 2242.058594 348.238281 2242.699219 348.289062 2243.589844 348.449219 C 2244.480469 348.609375 2245.410156 348.960938 2246.359375 349.5 C 2247.320312 350.039062 2248.121094 350.839844 2248.75 351.890625 C 2249.390625 352.941406 2249.648438 354.320312 2249.519531 356.050781 C 2249.390625 357.699219 2248.960938 358.960938 2248.230469 359.820312 C 2247.5 360.679688 2246.671875 361.25 2245.738281 361.539062 C 2244.820312 361.828125 2243.691406 362 2242.351562 362.070312 C 2240.691406 362 2239.308594 361.800781 2238.191406 361.441406 "/>
<path fill-rule="nonzero" fill="rgb(38.818359%, 23.925781%, 7.835388%)" fill-opacity="1" d="M 2280.289062 387.011719 C 2275.511719 386.878906 2271.78125 386.410156 2269.109375 385.578125 C 2266.429688 384.75 2264.539062 383.761719 2263.421875 382.609375 C 2262.308594 381.46875 2261.621094 380.339844 2261.371094 379.21875 C 2261.109375 378.109375 2260.988281 377.230469 2260.988281 376.589844 C 2260.988281 375.960938 2261.078125 374.96875 2261.269531 373.628906 C 2261.460938 372.289062 2262.070312 370.890625 2263.089844 369.421875 C 2264.109375 367.960938 2265.871094 366.691406 2268.390625 365.601562 C 2270.910156 364.519531 2274.488281 363.910156 2279.140625 363.789062 C 2284.238281 363.660156 2288.160156 363.949219 2290.898438 364.648438 C 2293.640625 365.351562 2295.601562 366.179688 2296.78125 367.128906 C 2297.949219 368.089844 2298.800781 369.300781 2299.308594 370.761719 C 2299.308594 371.589844 2299.210938 372.441406 2299.019531 373.300781 C 2298.828125 374.160156 2298.269531 374.859375 2297.351562 375.398438 C 2296.421875 375.941406 2294.851562 376.179688 2292.621094 376.109375 C 2290.828125 376.050781 2289.5 375.890625 2288.601562 375.640625 C 2287.710938 375.378906 2287.058594 375.078125 2286.648438 374.730469 C 2286.230469 374.378906 2285.820312 374.011719 2285.398438 373.628906 C 2284.988281 373.25 2284.378906 372.929688 2283.589844 372.671875 C 2282.789062 372.421875 2281.53125 372.261719 2279.808594 372.199219 C 2277.710938 372.128906 2276.128906 372.28125 2275.078125 372.628906 C 2274.03125 372.980469 2273.328125 373.410156 2272.980469 373.921875 C 2272.628906 374.429688 2272.421875 375.03125 2272.359375 375.730469 C 2272.679688 376.75 2273.390625 377.519531 2274.511719 378.03125 C 2275.621094 378.539062 2277.648438 378.820312 2280.578125 378.890625 C 2286.121094 379.078125 2290.371094 379.601562 2293.339844 380.460938 C 2296.300781 381.320312 2298.398438 382.328125 2299.640625 383.46875 C 2300.890625 384.621094 2301.621094 385.75 2301.839844 386.871094 C 2302.058594 387.980469 2302.179688 388.859375 2302.179688 389.488281 C 2302.179688 390.128906 2301.96875 391.121094 2301.550781 392.460938 C 2301.140625 393.789062 2300.261719 395.199219 2298.929688 396.660156 C 2297.589844 398.128906 2295.53125 399.398438 2292.761719 400.480469 C 2289.988281 401.570312 2286.28125 402.171875 2281.628906 402.300781 C 2276.589844 402.429688 2272.691406 402.140625 2269.921875 401.441406 C 2267.148438 400.738281 2265.171875 399.910156 2264 398.960938 C 2262.820312 398 2261.96875 396.789062 2261.460938 395.320312 C 2261.460938 394.429688 2261.570312 393.570312 2261.800781 392.738281 C 2262.019531 391.921875 2262.589844 391.230469 2263.519531 390.691406 C 2264.441406 390.148438 2265.988281 389.910156 2268.148438 389.96875 C 2270 390.039062 2271.351562 390.199219 2272.210938 390.449219 C 2273.070312 390.710938 2273.730469 391.011719 2274.171875 391.359375 C 2274.621094 391.710938 2275.03125 392.070312 2275.421875 392.460938 C 2275.800781 392.839844 2276.398438 393.160156 2277.230469 393.410156 C 2278.058594 393.671875 2279.300781 393.828125 2280.960938 393.890625 C 2283.058594 393.949219 2284.640625 393.808594 2285.691406 393.460938 C 2286.738281 393.109375 2287.460938 392.679688 2287.839844 392.171875 C 2288.21875 391.660156 2288.410156 391.058594 2288.410156 390.351562 C 2288.160156 389.269531 2287.46875 388.460938 2286.359375 387.921875 C 2285.238281 387.378906 2283.21875 387.070312 2280.289062 387.011719 "/>
<path fill-rule="nonzero" fill="rgb(38.818359%, 23.925781%, 7.835388%)" fill-opacity="1" d="M 2306.480469 350.121094 C 2306.410156 348.53125 2306.890625 347.238281 2307.910156 346.25 C 2308.929688 345.261719 2311.191406 344.671875 2314.691406 344.480469 C 2317.050781 344.359375 2318.769531 344.640625 2319.851562 345.339844 C 2320.941406 346.039062 2321.769531 347.128906 2322.339844 348.589844 L 2322.910156 357.101562 C 2325.019531 357.101562 2326.75 357.210938 2328.121094 357.429688 C 2329.488281 357.660156 2330.699219 358.089844 2331.75 358.71875 C 2332.800781 359.359375 2333.328125 360.351562 2333.328125 361.679688 C 2333.328125 363.019531 2332.820312 364.011719 2331.800781 364.648438 C 2330.78125 365.28125 2329.601562 365.710938 2328.261719 365.941406 C 2326.929688 366.160156 2325.210938 366.269531 2323.101562 366.269531 C 2323.171875 369.140625 2323.199219 371.699219 2323.199219 373.960938 C 2323.199219 376.230469 2323.230469 378.628906 2323.300781 381.179688 C 2323.359375 383.730469 2323.390625 386.171875 2323.390625 388.488281 C 2323.390625 390.820312 2323.410156 392.761719 2323.441406 394.320312 C 2323.46875 395.878906 2323.488281 396.789062 2323.488281 397.039062 C 2323.488281 397.488281 2323.339844 398.128906 2323.058594 398.960938 C 2322.769531 399.78125 2322.039062 400.550781 2320.859375 401.25 C 2319.679688 401.949219 2317.75 402.300781 2315.078125 402.300781 C 2313.101562 402.300781 2311.570312 402.058594 2310.488281 401.578125 C 2309.410156 401.109375 2308.628906 400.558594 2308.148438 399.960938 C 2307.671875 399.351562 2307.371094 398.570312 2307.238281 397.621094 L 2306.480469 350.121094 "/>
<path fill-rule="nonzero" fill="rgb(38.818359%, 23.925781%, 7.835388%)" fill-opacity="1" d="M 2433.289062 487.171875 L 1885.789062 487.171875 L 1885.789062 483.539062 L 2433.289062 483.539062 L 2433.289062 487.171875 "/>
<path fill-rule="nonzero" fill="rgb(38.818359%, 23.925781%, 7.835388%)" fill-opacity="1" d="M 1880.128906 454.488281 C 1880.128906 461.191406 1874.699219 466.621094 1868 466.621094 C 1861.300781 466.621094 1855.878906 461.191406 1855.878906 454.488281 C 1855.878906 447.800781 1861.300781 442.371094 1868 442.371094 C 1874.699219 442.371094 1880.128906 447.800781 1880.128906 454.488281 "/>
<path fill-rule="nonzero" fill="rgb(38.818359%, 23.925781%, 7.835388%)" fill-opacity="1" d="M 2433.289062 564.578125 L 1885.789062 564.578125 L 1885.789062 560.949219 L 2433.289062 560.949219 L 2433.289062 564.578125 "/>
<path fill-rule="nonzero" fill="rgb(38.818359%, 23.925781%, 7.835388%)" fill-opacity="1" d="M 1880.128906 531.910156 C 1880.128906 538.601562 1874.699219 544.03125 1868 544.03125 C 1861.300781 544.03125 1855.878906 538.601562 1855.878906 531.910156 C 1855.878906 525.210938 1861.300781 519.78125 1868 519.78125 C 1874.699219 519.78125 1880.128906 525.210938 1880.128906 531.910156 "/>
<path fill-rule="nonzero" fill="rgb(38.818359%, 23.925781%, 7.835388%)" fill-opacity="1" d="M 2433.289062 641.988281 L 1885.789062 641.988281 L 1885.789062 638.359375 L 2433.289062 638.359375 L 2433.289062 641.988281 "/>
<path fill-rule="nonzero" fill="rgb(38.818359%, 23.925781%, 7.835388%)" fill-opacity="1" d="M 1880.128906 609.308594 C 1880.128906 616.011719 1874.699219 621.441406 1868 621.441406 C 1861.300781 621.441406 1855.878906 616.011719 1855.878906 609.308594 C 1855.878906 602.621094 1861.300781 597.191406 1868 597.191406 C 1874.699219 597.191406 1880.128906 602.621094 1880.128906 609.308594 "/>
<path fill-rule="nonzero" fill="rgb(38.818359%, 23.925781%, 7.835388%)" fill-opacity="1" d="M 2433.289062 719.398438 L 1885.789062 719.398438 L 1885.789062 715.769531 L 2433.289062 715.769531 L 2433.289062 719.398438 "/>
<path fill-rule="nonzero" fill="rgb(38.818359%, 23.925781%, 7.835388%)" fill-opacity="1" d="M 1880.128906 686.71875 C 1880.128906 693.421875 1874.699219 698.851562 1868 698.851562 C 1861.300781 698.851562 1855.878906 693.421875 1855.878906 686.71875 C 1855.878906 680.03125 1861.300781 674.601562 1868 674.601562 C 1874.699219 674.601562 1880.128906 680.03125 1880.128906 686.71875 "/>
<path fill-rule="nonzero" fill="rgb(38.818359%, 23.925781%, 7.835388%)" fill-opacity="1" d="M 2433.289062 796.808594 L 1885.789062 796.808594 L 1885.789062 793.179688 L 2433.289062 793.179688 L 2433.289062 796.808594 "/>
<path fill-rule="nonzero" fill="rgb(38.818359%, 23.925781%, 7.835388%)" fill-opacity="1" d="M 1880.128906 764.128906 C 1880.128906 770.828125 1874.699219 776.261719 1868 776.261719 C 1861.300781 776.261719 1855.878906 770.828125 1855.878906 764.128906 C 1855.878906 757.441406 1861.300781 752.011719 1868 752.011719 C 1874.699219 752.011719 1880.128906 757.441406 1880.128906 764.128906 "/>
<path fill-rule="nonzero" fill="rgb(38.818359%, 23.925781%, 7.835388%)" fill-opacity="1" d="M 2433.289062 874.21875 L 1885.789062 874.21875 L 1885.789062 870.589844 L 2433.289062 870.589844 L 2433.289062 874.21875 "/>
<path fill-rule="nonzero" fill="rgb(38.818359%, 23.925781%, 7.835388%)" fill-opacity="1" d="M 1880.128906 841.539062 C 1880.128906 848.238281 1874.699219 853.671875 1868 853.671875 C 1861.300781 853.671875 1855.878906 848.238281 1855.878906 841.539062 C 1855.878906 834.851562 1861.300781 829.421875 1868 829.421875 C 1874.699219 829.421875 1880.128906 834.851562 1880.128906 841.539062 "/>
<path fill-rule="nonzero" fill="rgb(38.818359%, 23.925781%, 7.835388%)" fill-opacity="1" d="M 2433.289062 951.621094 L 1885.789062 951.621094 L 1885.789062 948 L 2433.289062 948 L 2433.289062 951.621094 "/>
<path fill-rule="nonzero" fill="rgb(38.818359%, 23.925781%, 7.835388%)" fill-opacity="1" d="M 1880.128906 918.949219 C 1880.128906 925.648438 1874.699219 931.078125 1868 931.078125 C 1861.300781 931.078125 1855.878906 925.648438 1855.878906 918.949219 C 1855.878906 912.261719 1861.300781 906.828125 1868 906.828125 C 1874.699219 906.828125 1880.128906 912.261719 1880.128906 918.949219 "/>
<path fill-rule="nonzero" fill="rgb(38.818359%, 23.925781%, 7.835388%)" fill-opacity="1" d="M 2433.289062 1029.039062 L 1885.789062 1029.039062 L 1885.789062 1025.410156 L 2433.289062 1025.410156 L 2433.289062 1029.039062 "/>
<path fill-rule="nonzero" fill="rgb(38.818359%, 23.925781%, 7.835388%)" fill-opacity="1" d="M 1880.128906 996.359375 C 1880.128906 1003.058594 1874.699219 1008.488281 1868 1008.488281 C 1861.300781 1008.488281 1855.878906 1003.058594 1855.878906 996.359375 C 1855.878906 989.671875 1861.300781 984.238281 1868 984.238281 C 1874.699219 984.238281 1880.128906 989.671875 1880.128906 996.359375 "/>
<path fill-rule="nonzero" fill="rgb(38.818359%, 23.925781%, 7.835388%)" fill-opacity="1" d="M 2433.289062 1106.449219 L 1885.789062 1106.449219 L 1885.789062 1102.820312 L 2433.289062 1102.820312 L 2433.289062 1106.449219 "/>
<path fill-rule="nonzero" fill="rgb(38.818359%, 23.925781%, 7.835388%)" fill-opacity="1" d="M 1880.128906 1073.769531 C 1880.128906 1080.46875 1874.699219 1085.898438 1868 1085.898438 C 1861.300781 1085.898438 1855.878906 1080.46875 1855.878906 1073.769531 C 1855.878906 1067.078125 1861.300781 1061.648438 1868 1061.648438 C 1874.699219 1061.648438 1880.128906 1067.078125 1880.128906 1073.769531 "/>
<path fill-rule="nonzero" fill="rgb(38.818359%, 23.925781%, 7.835388%)" fill-opacity="1" d="M 2433.289062 1183.851562 L 1885.789062 1183.851562 L 1885.789062 1180.230469 L 2433.289062 1180.230469 L 2433.289062 1183.851562 "/>
<path fill-rule="nonzero" fill="rgb(38.818359%, 23.925781%, 7.835388%)" fill-opacity="1" d="M 1880.128906 1151.179688 C 1880.128906 1157.878906 1874.699219 1163.308594 1868 1163.308594 C 1861.300781 1163.308594 1855.878906 1157.878906 1855.878906 1151.179688 C 1855.878906 1144.488281 1861.300781 1139.058594 1868 1139.058594 C 1874.699219 1139.058594 1880.128906 1144.488281 1880.128906 1151.179688 "/>
<path fill-rule="nonzero" fill="rgb(38.818359%, 23.925781%, 7.835388%)" fill-opacity="1" d="M 2433.289062 1261.261719 L 1885.789062 1261.261719 L 1885.789062 1257.640625 L 2433.289062 1257.640625 L 2433.289062 1261.261719 "/>
<path fill-rule="nonzero" fill="rgb(38.818359%, 23.925781%, 7.835388%)" fill-opacity="1" d="M 1880.128906 1228.589844 C 1880.128906 1235.289062 1874.699219 1240.71875 1868 1240.71875 C 1861.300781 1240.71875 1855.878906 1235.289062 1855.878906 1228.589844 C 1855.878906 1221.898438 1861.300781 1216.46875 1868 1216.46875 C 1874.699219 1216.46875 1880.128906 1221.898438 1880.128906 1228.589844 "/>
</svg>
