<?xml version="1.0" encoding="UTF-8"?>
<svg xmlns="http://www.w3.org/2000/svg" xmlns:xlink="http://www.w3.org/1999/xlink" width="3872.99" height="3872.99" viewBox="0 0 3872.99 3872.99">
<defs>
<clipPath id="clip-0">
<path clip-rule="nonzero" d="M 0 0 L 3872.988281 0 L 3872.988281 3872.988281 L 0 3872.988281 Z M 0 0 "/>
</clipPath>
<clipPath id="clip-1">
<path clip-rule="evenodd" d="M 459.511719 196.929688 C 315.09375 196.929688 196.925781 315.089844 196.925781 459.511719 L 196.925781 3413.46875 C 196.925781 3557.898438 315.09375 3676.058594 459.511719 3676.058594 L 3413.46875 3676.058594 C 3557.898438 3676.058594 3676.058594 3557.898438 3676.058594 3413.46875 L 3676.058594 459.511719 C 3676.058594 315.089844 3557.898438 196.929688 3413.46875 196.929688 Z M 459.511719 0 L 3413.46875 0 C 3666.210938 0 3872.988281 206.78125 3872.988281 459.511719 L 3872.988281 3413.46875 C 3872.988281 3666.210938 3666.210938 3872.988281 3413.46875 3872.988281 L 459.511719 3872.988281 C 206.777344 3872.988281 0 3666.210938 0 3413.46875 L 0 459.511719 C 0 206.78125 206.777344 0 459.511719 0 "/>
</clipPath>
<linearGradient id="linear-pattern-0" gradientUnits="userSpaceOnUse" x1="-0.260024" y1="0" x2="1.260167" y2="0" gradientTransform="matrix(2547.7, 2547.7, -2547.7, 2547.7, 662.464, 662.46)">
<stop offset="0" stop-color="rgb(98.431396%, 76.469421%, 26.66626%)" stop-opacity="1"/>
<stop offset="0.125" stop-color="rgb(98.431396%, 76.469421%, 26.66626%)" stop-opacity="1"/>
<stop offset="0.15625" stop-color="rgb(98.431396%, 76.469421%, 26.66626%)" stop-opacity="1"/>
<stop offset="0.171875" stop-color="rgb(98.429871%, 76.49231%, 26.679993%)" stop-opacity="1"/>
<stop offset="0.175781" stop-color="rgb(98.423767%, 76.739502%, 26.831055%)" stop-opacity="1"/>
<stop offset="0.179688" stop-color="rgb(98.419189%, 76.96228%, 26.968384%)" stop-opacity="1"/>
<stop offset="0.183594" stop-color="rgb(98.414612%, 77.185059%, 27.104187%)" stop-opacity="1"/>
<stop offset="0.1875" stop-color="rgb(98.410034%, 77.407837%, 27.241516%)" stop-opacity="1"/>
<stop offset="0.191406" stop-color="rgb(98.403931%, 77.630615%, 27.377319%)" stop-opacity="1"/>
<stop offset="0.195313" stop-color="rgb(98.399353%, 77.853394%, 27.514648%)" stop-opacity="1"/>
<stop offset="0.199219" stop-color="rgb(98.39325%, 78.076172%, 27.650452%)" stop-opacity="1"/>
<stop offset="0.203125" stop-color="rgb(98.388672%, 78.29895%, 27.787781%)" stop-opacity="1"/>
<stop offset="0.207031" stop-color="rgb(98.384094%, 78.521729%, 27.92511%)" stop-opacity="1"/>
<stop offset="0.210938" stop-color="rgb(98.379517%, 78.744507%, 28.062439%)" stop-opacity="1"/>
<stop offset="0.214844" stop-color="rgb(98.373413%, 78.967285%, 28.198242%)" stop-opacity="1"/>
<stop offset="0.21875" stop-color="rgb(98.368835%, 79.190063%, 28.335571%)" stop-opacity="1"/>
<stop offset="0.222656" stop-color="rgb(98.362732%, 79.412842%, 28.471375%)" stop-opacity="1"/>
<stop offset="0.226563" stop-color="rgb(98.358154%, 79.63562%, 28.608704%)" stop-opacity="1"/>
<stop offset="0.230469" stop-color="rgb(98.353577%, 79.858398%, 28.744507%)" stop-opacity="1"/>
<stop offset="0.234375" stop-color="rgb(98.348999%, 80.081177%, 28.881836%)" stop-opacity="1"/>
<stop offset="0.238281" stop-color="rgb(98.342896%, 80.303955%, 29.017639%)" stop-opacity="1"/>
<stop offset="0.242188" stop-color="rgb(98.338318%, 80.526733%, 29.154968%)" stop-opacity="1"/>
<stop offset="0.246094" stop-color="rgb(98.332214%, 80.749512%, 29.290771%)" stop-opacity="1"/>
<stop offset="0.25" stop-color="rgb(98.327637%, 80.97229%, 29.428101%)" stop-opacity="1"/>
<stop offset="0.253906" stop-color="rgb(98.323059%, 81.195068%, 29.56543%)" stop-opacity="1"/>
<stop offset="0.257812" stop-color="rgb(98.318481%, 81.417847%, 29.702759%)" stop-opacity="1"/>
<stop offset="0.261719" stop-color="rgb(98.312378%, 81.640625%, 29.838562%)" stop-opacity="1"/>
<stop offset="0.265625" stop-color="rgb(98.3078%, 81.863403%, 29.975891%)" stop-opacity="1"/>
<stop offset="0.269531" stop-color="rgb(98.303223%, 82.086182%, 30.111694%)" stop-opacity="1"/>
<stop offset="0.273438" stop-color="rgb(98.298645%, 82.30896%, 30.249023%)" stop-opacity="1"/>
<stop offset="0.277344" stop-color="rgb(98.292542%, 82.531738%, 30.384827%)" stop-opacity="1"/>
<stop offset="0.28125" stop-color="rgb(98.287964%, 82.754517%, 30.522156%)" stop-opacity="1"/>
<stop offset="0.285156" stop-color="rgb(98.28186%, 82.977295%, 30.657959%)" stop-opacity="1"/>
<stop offset="0.289062" stop-color="rgb(98.277283%, 83.200073%, 30.795288%)" stop-opacity="1"/>
<stop offset="0.292969" stop-color="rgb(98.272705%, 83.422852%, 30.931091%)" stop-opacity="1"/>
<stop offset="0.296875" stop-color="rgb(98.268127%, 83.64563%, 31.06842%)" stop-opacity="1"/>
<stop offset="0.300781" stop-color="rgb(98.262024%, 83.868408%, 31.204224%)" stop-opacity="1"/>
<stop offset="0.304688" stop-color="rgb(98.257446%, 84.091187%, 31.341553%)" stop-opacity="1"/>
<stop offset="0.308594" stop-color="rgb(98.251343%, 84.312439%, 31.478882%)" stop-opacity="1"/>
<stop offset="0.3125" stop-color="rgb(98.246765%, 84.535217%, 31.616211%)" stop-opacity="1"/>
<stop offset="0.316406" stop-color="rgb(98.242188%, 84.757996%, 31.752014%)" stop-opacity="1"/>
<stop offset="0.320312" stop-color="rgb(98.23761%, 84.980774%, 31.889343%)" stop-opacity="1"/>
<stop offset="0.324219" stop-color="rgb(98.231506%, 85.203552%, 32.025146%)" stop-opacity="1"/>
<stop offset="0.328125" stop-color="rgb(98.226929%, 85.426331%, 32.162476%)" stop-opacity="1"/>
<stop offset="0.332031" stop-color="rgb(98.220825%, 85.649109%, 32.298279%)" stop-opacity="1"/>
<stop offset="0.335938" stop-color="rgb(98.216248%, 85.871887%, 32.435608%)" stop-opacity="1"/>
<stop offset="0.339844" stop-color="rgb(98.21167%, 86.094666%, 32.571411%)" stop-opacity="1"/>
<stop offset="0.34375" stop-color="rgb(98.207092%, 86.317444%, 32.70874%)" stop-opacity="1"/>
<stop offset="0.347656" stop-color="rgb(98.200989%, 86.540222%, 32.844543%)" stop-opacity="1"/>
<stop offset="0.351562" stop-color="rgb(98.196411%, 86.763%, 32.981873%)" stop-opacity="1"/>
<stop offset="0.355469" stop-color="rgb(98.191833%, 86.985779%, 33.119202%)" stop-opacity="1"/>
<stop offset="0.359375" stop-color="rgb(98.187256%, 87.208557%, 33.256531%)" stop-opacity="1"/>
<stop offset="0.363281" stop-color="rgb(98.181152%, 87.431335%, 33.392334%)" stop-opacity="1"/>
<stop offset="0.367188" stop-color="rgb(98.176575%, 87.654114%, 33.529663%)" stop-opacity="1"/>
<stop offset="0.371094" stop-color="rgb(98.170471%, 87.876892%, 33.665466%)" stop-opacity="1"/>
<stop offset="0.375" stop-color="rgb(98.165894%, 88.09967%, 33.802795%)" stop-opacity="1"/>
<stop offset="0.378906" stop-color="rgb(98.161316%, 88.322449%, 33.938599%)" stop-opacity="1"/>
<stop offset="0.382813" stop-color="rgb(98.156738%, 88.545227%, 34.075928%)" stop-opacity="1"/>
<stop offset="0.386719" stop-color="rgb(98.150635%, 88.768005%, 34.211731%)" stop-opacity="1"/>
<stop offset="0.390625" stop-color="rgb(98.146057%, 88.990784%, 34.34906%)" stop-opacity="1"/>
<stop offset="0.394531" stop-color="rgb(98.139954%, 89.213562%, 34.484863%)" stop-opacity="1"/>
<stop offset="0.398438" stop-color="rgb(98.135376%, 89.43634%, 34.622192%)" stop-opacity="1"/>
<stop offset="0.402344" stop-color="rgb(98.130798%, 89.659119%, 34.757996%)" stop-opacity="1"/>
<stop offset="0.40625" stop-color="rgb(98.126221%, 89.881897%, 34.895325%)" stop-opacity="1"/>
<stop offset="0.410156" stop-color="rgb(98.120117%, 90.104675%, 35.032654%)" stop-opacity="1"/>
<stop offset="0.414062" stop-color="rgb(98.11554%, 90.327454%, 35.169983%)" stop-opacity="1"/>
<stop offset="0.417969" stop-color="rgb(98.109436%, 90.550232%, 35.305786%)" stop-opacity="1"/>
<stop offset="0.421875" stop-color="rgb(98.104858%, 90.77301%, 35.443115%)" stop-opacity="1"/>
<stop offset="0.425781" stop-color="rgb(98.100281%, 90.995789%, 35.578918%)" stop-opacity="1"/>
<stop offset="0.429688" stop-color="rgb(98.095703%, 91.218567%, 35.716248%)" stop-opacity="1"/>
<stop offset="0.433594" stop-color="rgb(98.0896%, 91.441345%, 35.852051%)" stop-opacity="1"/>
<stop offset="0.4375" stop-color="rgb(98.085022%, 91.664124%, 35.98938%)" stop-opacity="1"/>
<stop offset="0.441406" stop-color="rgb(98.080444%, 91.886902%, 36.125183%)" stop-opacity="1"/>
<stop offset="0.445313" stop-color="rgb(98.075867%, 92.10968%, 36.262512%)" stop-opacity="1"/>
<stop offset="0.449219" stop-color="rgb(98.069763%, 92.332458%, 36.398315%)" stop-opacity="1"/>
<stop offset="0.453125" stop-color="rgb(98.065186%, 92.555237%, 36.535645%)" stop-opacity="1"/>
<stop offset="0.457031" stop-color="rgb(98.059082%, 92.778015%, 36.672974%)" stop-opacity="1"/>
<stop offset="0.460938" stop-color="rgb(98.054504%, 93.000793%, 36.810303%)" stop-opacity="1"/>
<stop offset="0.464844" stop-color="rgb(98.049927%, 93.223572%, 36.946106%)" stop-opacity="1"/>
<stop offset="0.46875" stop-color="rgb(98.045349%, 93.44635%, 37.083435%)" stop-opacity="1"/>
<stop offset="0.476562" stop-color="rgb(97.85614%, 93.522644%, 37.207031%)" stop-opacity="1"/>
<stop offset="0.480469" stop-color="rgb(97.171021%, 93.431091%, 37.434387%)" stop-opacity="1"/>
<stop offset="0.484375" stop-color="rgb(96.67511%, 93.263245%, 37.538147%)" stop-opacity="1"/>
<stop offset="0.488281" stop-color="rgb(96.179199%, 93.093872%, 37.641907%)" stop-opacity="1"/>
<stop offset="0.492188" stop-color="rgb(95.683289%, 92.926025%, 37.745667%)" stop-opacity="1"/>
<stop offset="0.496094" stop-color="rgb(95.187378%, 92.758179%, 37.849426%)" stop-opacity="1"/>
<stop offset="0.5" stop-color="rgb(94.691467%, 92.590332%, 37.953186%)" stop-opacity="1"/>
<stop offset="0.503906" stop-color="rgb(94.195557%, 92.420959%, 38.05542%)" stop-opacity="1"/>
<stop offset="0.507813" stop-color="rgb(93.699646%, 92.253113%, 38.15918%)" stop-opacity="1"/>
<stop offset="0.511719" stop-color="rgb(93.203735%, 92.085266%, 38.262939%)" stop-opacity="1"/>
<stop offset="0.515625" stop-color="rgb(92.707825%, 91.917419%, 38.366699%)" stop-opacity="1"/>
<stop offset="0.519531" stop-color="rgb(92.211914%, 91.748047%, 38.470459%)" stop-opacity="1"/>
<stop offset="0.523438" stop-color="rgb(91.716003%, 91.5802%, 38.574219%)" stop-opacity="1"/>
<stop offset="0.527344" stop-color="rgb(91.220093%, 91.412354%, 38.676453%)" stop-opacity="1"/>
<stop offset="0.53125" stop-color="rgb(90.724182%, 91.244507%, 38.780212%)" stop-opacity="1"/>
<stop offset="0.535156" stop-color="rgb(90.228271%, 91.075134%, 38.883972%)" stop-opacity="1"/>
<stop offset="0.539062" stop-color="rgb(89.732361%, 90.907288%, 38.987732%)" stop-opacity="1"/>
<stop offset="0.542969" stop-color="rgb(89.23645%, 90.739441%, 39.091492%)" stop-opacity="1"/>
<stop offset="0.546875" stop-color="rgb(88.74054%, 90.571594%, 39.195251%)" stop-opacity="1"/>
<stop offset="0.550781" stop-color="rgb(88.244629%, 90.403748%, 39.297485%)" stop-opacity="1"/>
<stop offset="0.554688" stop-color="rgb(87.748718%, 90.235901%, 39.401245%)" stop-opacity="1"/>
<stop offset="0.558594" stop-color="rgb(87.252808%, 90.066528%, 39.505005%)" stop-opacity="1"/>
<stop offset="0.5625" stop-color="rgb(86.756897%, 89.898682%, 39.608765%)" stop-opacity="1"/>
<stop offset="0.566406" stop-color="rgb(86.260986%, 89.730835%, 39.712524%)" stop-opacity="1"/>
<stop offset="0.570313" stop-color="rgb(85.765076%, 89.562988%, 39.816284%)" stop-opacity="1"/>
<stop offset="0.574219" stop-color="rgb(85.269165%, 89.393616%, 39.918518%)" stop-opacity="1"/>
<stop offset="0.578125" stop-color="rgb(84.773254%, 89.225769%, 40.022278%)" stop-opacity="1"/>
<stop offset="0.582031" stop-color="rgb(84.277344%, 89.057922%, 40.126038%)" stop-opacity="1"/>
<stop offset="0.585938" stop-color="rgb(83.781433%, 88.890076%, 40.229797%)" stop-opacity="1"/>
<stop offset="0.589844" stop-color="rgb(83.285522%, 88.720703%, 40.332031%)" stop-opacity="1"/>
<stop offset="0.59375" stop-color="rgb(82.789612%, 88.552856%, 40.435791%)" stop-opacity="1"/>
<stop offset="0.597656" stop-color="rgb(82.293701%, 88.38501%, 40.539551%)" stop-opacity="1"/>
<stop offset="0.601562" stop-color="rgb(81.797791%, 88.217163%, 40.643311%)" stop-opacity="1"/>
<stop offset="0.605469" stop-color="rgb(81.30188%, 88.047791%, 40.74707%)" stop-opacity="1"/>
<stop offset="0.609375" stop-color="rgb(80.805969%, 87.879944%, 40.85083%)" stop-opacity="1"/>
<stop offset="0.613281" stop-color="rgb(80.310059%, 87.712097%, 40.953064%)" stop-opacity="1"/>
<stop offset="0.617188" stop-color="rgb(79.814148%, 87.54425%, 41.056824%)" stop-opacity="1"/>
<stop offset="0.621094" stop-color="rgb(79.318237%, 87.376404%, 41.160583%)" stop-opacity="1"/>
<stop offset="0.625" stop-color="rgb(78.822327%, 87.208557%, 41.264343%)" stop-opacity="1"/>
<stop offset="0.628906" stop-color="rgb(78.326416%, 87.039185%, 41.368103%)" stop-opacity="1"/>
<stop offset="0.632813" stop-color="rgb(77.830505%, 86.871338%, 41.471863%)" stop-opacity="1"/>
<stop offset="0.636719" stop-color="rgb(77.334595%, 86.703491%, 41.574097%)" stop-opacity="1"/>
<stop offset="0.640625" stop-color="rgb(76.838684%, 86.535645%, 41.677856%)" stop-opacity="1"/>
<stop offset="0.644531" stop-color="rgb(76.342773%, 86.366272%, 41.781616%)" stop-opacity="1"/>
<stop offset="0.648438" stop-color="rgb(75.846863%, 86.198425%, 41.885376%)" stop-opacity="1"/>
<stop offset="0.652344" stop-color="rgb(75.350952%, 86.030579%, 41.989136%)" stop-opacity="1"/>
<stop offset="0.65625" stop-color="rgb(74.855042%, 85.862732%, 42.092896%)" stop-opacity="1"/>
<stop offset="0.660156" stop-color="rgb(74.359131%, 85.693359%, 42.195129%)" stop-opacity="1"/>
<stop offset="0.664062" stop-color="rgb(73.86322%, 85.525513%, 42.298889%)" stop-opacity="1"/>
<stop offset="0.667969" stop-color="rgb(73.36731%, 85.357666%, 42.402649%)" stop-opacity="1"/>
<stop offset="0.671875" stop-color="rgb(72.871399%, 85.189819%, 42.506409%)" stop-opacity="1"/>
<stop offset="0.675781" stop-color="rgb(72.375488%, 85.020447%, 42.610168%)" stop-opacity="1"/>
<stop offset="0.679688" stop-color="rgb(71.879578%, 84.8526%, 42.713928%)" stop-opacity="1"/>
<stop offset="0.683594" stop-color="rgb(71.383667%, 84.684753%, 42.816162%)" stop-opacity="1"/>
<stop offset="0.6875" stop-color="rgb(70.887756%, 84.516907%, 42.919922%)" stop-opacity="1"/>
<stop offset="0.691406" stop-color="rgb(70.391846%, 84.34906%, 43.023682%)" stop-opacity="1"/>
<stop offset="0.695313" stop-color="rgb(69.895935%, 84.181213%, 43.127441%)" stop-opacity="1"/>
<stop offset="0.699219" stop-color="rgb(69.400024%, 84.011841%, 43.231201%)" stop-opacity="1"/>
<stop offset="0.703125" stop-color="rgb(68.904114%, 83.843994%, 43.334961%)" stop-opacity="1"/>
<stop offset="0.707031" stop-color="rgb(68.408203%, 83.676147%, 43.437195%)" stop-opacity="1"/>
<stop offset="0.710938" stop-color="rgb(67.912292%, 83.508301%, 43.540955%)" stop-opacity="1"/>
<stop offset="0.714844" stop-color="rgb(67.414856%, 83.338928%, 43.644714%)" stop-opacity="1"/>
<stop offset="0.71875" stop-color="rgb(66.918945%, 83.171082%, 43.748474%)" stop-opacity="1"/>
<stop offset="0.722656" stop-color="rgb(66.423035%, 83.003235%, 43.852234%)" stop-opacity="1"/>
<stop offset="0.726562" stop-color="rgb(65.927124%, 82.835388%, 43.955994%)" stop-opacity="1"/>
<stop offset="0.730469" stop-color="rgb(65.431213%, 82.666016%, 44.058228%)" stop-opacity="1"/>
<stop offset="0.734375" stop-color="rgb(64.935303%, 82.498169%, 44.161987%)" stop-opacity="1"/>
<stop offset="0.738281" stop-color="rgb(64.439392%, 82.330322%, 44.265747%)" stop-opacity="1"/>
<stop offset="0.742188" stop-color="rgb(63.943481%, 82.162476%, 44.369507%)" stop-opacity="1"/>
<stop offset="0.746094" stop-color="rgb(63.447571%, 81.993103%, 44.473267%)" stop-opacity="1"/>
<stop offset="0.75" stop-color="rgb(62.95166%, 81.825256%, 44.577026%)" stop-opacity="1"/>
<stop offset="0.753906" stop-color="rgb(62.45575%, 81.65741%, 44.67926%)" stop-opacity="1"/>
<stop offset="0.757813" stop-color="rgb(61.959839%, 81.489563%, 44.78302%)" stop-opacity="1"/>
<stop offset="0.761719" stop-color="rgb(61.463928%, 81.321716%, 44.88678%)" stop-opacity="1"/>
<stop offset="0.765625" stop-color="rgb(60.968018%, 81.15387%, 44.99054%)" stop-opacity="1"/>
<stop offset="0.769531" stop-color="rgb(60.472107%, 80.984497%, 45.094299%)" stop-opacity="1"/>
<stop offset="0.773438" stop-color="rgb(59.976196%, 80.81665%, 45.198059%)" stop-opacity="1"/>
<stop offset="0.777344" stop-color="rgb(59.480286%, 80.648804%, 45.300293%)" stop-opacity="1"/>
<stop offset="0.78125" stop-color="rgb(58.984375%, 80.480957%, 45.404053%)" stop-opacity="1"/>
<stop offset="0.785156" stop-color="rgb(58.488464%, 80.311584%, 45.507812%)" stop-opacity="1"/>
<stop offset="0.789062" stop-color="rgb(57.992554%, 80.143738%, 45.611572%)" stop-opacity="1"/>
<stop offset="0.792969" stop-color="rgb(57.496643%, 79.975891%, 45.715332%)" stop-opacity="1"/>
<stop offset="0.796875" stop-color="rgb(57.000732%, 79.808044%, 45.819092%)" stop-opacity="1"/>
<stop offset="0.800781" stop-color="rgb(56.504822%, 79.638672%, 45.921326%)" stop-opacity="1"/>
<stop offset="0.804688" stop-color="rgb(56.008911%, 79.470825%, 46.025085%)" stop-opacity="1"/>
<stop offset="0.808594" stop-color="rgb(55.513%, 79.302979%, 46.128845%)" stop-opacity="1"/>
<stop offset="0.8125" stop-color="rgb(55.01709%, 79.135132%, 46.232605%)" stop-opacity="1"/>
<stop offset="0.816406" stop-color="rgb(54.521179%, 78.965759%, 46.336365%)" stop-opacity="1"/>
<stop offset="0.820313" stop-color="rgb(54.025269%, 78.797913%, 46.440125%)" stop-opacity="1"/>
<stop offset="0.824219" stop-color="rgb(53.529358%, 78.630066%, 46.542358%)" stop-opacity="1"/>
<stop offset="0.828125" stop-color="rgb(53.033447%, 78.462219%, 46.646118%)" stop-opacity="1"/>
<stop offset="0.84375" stop-color="rgb(52.986145%, 78.445435%, 46.655273%)" stop-opacity="1"/>
<stop offset="0.875" stop-color="rgb(52.940369%, 78.430176%, 46.665955%)" stop-opacity="1"/>
<stop offset="1" stop-color="rgb(52.940369%, 78.430176%, 46.665955%)" stop-opacity="1"/>
</linearGradient>
</defs>
<path fill-rule="evenodd" fill="rgb(89.84375%, 89.84375%, 89.84375%)" fill-opacity="1" d="M 511.644531 258.320312 C 372.316406 258.320312 258.332031 372.308594 258.332031 511.648438 L 258.332031 3361.359375 C 258.332031 3500.691406 372.316406 3614.671875 511.644531 3614.671875 L 3361.359375 3614.671875 C 3500.691406 3614.671875 3614.671875 3500.691406 3614.671875 3361.359375 L 3614.671875 511.648438 C 3614.671875 372.308594 3500.691406 258.320312 3361.359375 258.320312 Z M 511.644531 68.351562 L 3361.359375 68.351562 C 3605.160156 68.351562 3804.628906 267.828125 3804.628906 511.648438 L 3804.628906 3361.359375 C 3804.628906 3605.160156 3605.160156 3804.628906 3361.359375 3804.628906 L 511.644531 3804.628906 C 267.832031 3804.628906 68.347656 3605.160156 68.347656 3361.359375 L 68.347656 511.648438 C 68.347656 267.828125 267.832031 68.351562 511.644531 68.351562 "/>
<g clip-path="url(#clip-0)">
<g clip-path="url(#clip-1)">
<path fill-rule="nonzero" fill="url(#linear-pattern-0)" d="M 1936.496094 -1936.496094 L -1936.496094 1936.496094 L 1936.496094 5809.484375 L 5809.484375 1936.496094 Z M 1936.496094 -1936.496094 "/>
</g>
</g>
<path fill-rule="evenodd" fill="rgb(87.109375%, 87.109375%, 92.576599%)" fill-opacity="1" d="M 2919.359375 1832.441406 C 2912.269531 1832.441406 2905.488281 1829.628906 2900.460938 1824.621094 L 2038.449219 962.601562 C 2028.019531 952.171875 2028.019531 935.25 2038.441406 924.828125 L 2133.140625 830.128906 C 2171.78125 791.488281 2223.320312 770.230469 2278.289062 770.230469 C 2333.261719 770.230469 2384.800781 791.488281 2423.421875 830.128906 L 3032.929688 1439.628906 C 3112.96875 1519.671875 3112.96875 1649.898438 3032.929688 1729.929688 L 2938.25 1824.621094 C 2933.238281 1829.628906 2926.441406 1832.441406 2919.359375 1832.441406 "/>
<path fill-rule="evenodd" fill="rgb(87.109375%, 87.109375%, 92.576599%)" fill-opacity="1" d="M 1668.769531 2906.039062 C 1547.511719 2906.039062 1433.820312 2859.121094 1348.648438 2773.949219 L 787.859375 2213.179688 C 782.851562 2208.171875 780.042969 2201.371094 780.042969 2194.28125 C 780.042969 2187.199219 782.851562 2180.421875 787.859375 2175.410156 L 1247.171875 1716.101562 C 1257.601562 1705.671875 1274.511719 1705.671875 1284.941406 1716.101562 L 2146.96875 2578.121094 C 2157.410156 2588.558594 2157.410156 2605.46875 2146.96875 2615.890625 L 1988.910156 2773.960938 C 1903.730469 2859.121094 1790.03125 2906.039062 1668.769531 2906.039062 "/>
<path fill-rule="evenodd" fill="rgb(81.25%, 81.25%, 86.326599%)" fill-opacity="1" d="M 1202.511719 1760.761719 L 1247.171875 1716.101562 C 1257.601562 1705.671875 1274.511719 1705.671875 1284.941406 1716.101562 L 2146.96875 2578.121094 C 2157.410156 2588.558594 2157.410156 2605.46875 2146.96875 2615.890625 L 2102.308594 2660.550781 L 1202.511719 1760.761719 "/>
<path fill-rule="evenodd" fill="rgb(59.568787%, 59.568787%, 100%)" fill-opacity="1" d="M 2152.03125 2647.648438 C 2145.191406 2647.648438 2138.351562 2645.050781 2133.140625 2639.828125 L 1223.21875 1729.929688 C 1218.210938 1724.921875 1215.410156 1718.121094 1215.410156 1711.039062 C 1215.410156 1703.949219 1218.210938 1697.171875 1223.21875 1692.148438 L 2014.5 900.871094 C 2024.941406 890.441406 2041.851562 890.441406 2052.269531 900.871094 L 2962.179688 1810.78125 C 2967.191406 1815.789062 2970.011719 1822.578125 2970.011719 1829.671875 C 2970.011719 1836.75 2967.191406 1843.550781 2962.179688 1848.558594 L 2170.910156 2639.828125 C 2165.699219 2645.050781 2158.851562 2647.648438 2152.03125 2647.648438 "/>
<path fill-rule="evenodd" fill="rgb(66.992188%, 66.992188%, 100%)" fill-opacity="1" d="M 1346.128906 1569.25 L 1383.910156 1531.46875 L 2331.589844 2479.140625 L 2293.808594 2516.921875 L 1346.128906 1569.25 "/>
<path fill-rule="evenodd" fill="rgb(66.992188%, 66.992188%, 100%)" fill-opacity="1" d="M 1853.769531 1061.609375 L 1891.550781 1023.828125 L 2838.851562 1971.878906 L 2801.089844 2009.660156 L 1853.769531 1061.609375 "/>
<path fill-rule="evenodd" fill="rgb(66.992188%, 66.992188%, 100%)" fill-opacity="1" d="M 2039.96875 2095.710938 C 2033.148438 2095.710938 2026.308594 2093.089844 2021.101562 2087.878906 L 1542.960938 1609.738281 C 1532.53125 1599.308594 1532.53125 1582.390625 1542.960938 1571.960938 C 1553.390625 1561.519531 1570.300781 1561.53125 1580.730469 1571.960938 L 2058.871094 2050.101562 C 2069.300781 2060.539062 2069.300781 2077.441406 2058.871094 2087.859375 C 2053.660156 2093.089844 2046.820312 2095.710938 2039.96875 2095.710938 Z M 2272.210938 2327.941406 C 2265.390625 2327.941406 2258.539062 2325.328125 2253.328125 2320.121094 L 2173.058594 2239.839844 C 2162.621094 2229.398438 2162.621094 2212.46875 2173.039062 2202.050781 C 2183.480469 2191.621094 2200.398438 2191.621094 2210.820312 2202.050781 L 2291.101562 2282.328125 C 2301.539062 2292.769531 2301.539062 2309.679688 2291.101562 2320.101562 C 2285.890625 2325.328125 2279.050781 2327.941406 2272.210938 2327.941406 "/>
<path fill-rule="evenodd" fill="rgb(66.992188%, 66.992188%, 100%)" fill-opacity="1" d="M 1729.960938 1610.011719 C 1723.128906 1610.011719 1716.289062 1607.398438 1711.070312 1602.179688 L 1630.78125 1521.890625 C 1620.351562 1511.46875 1620.351562 1494.550781 1630.78125 1484.121094 C 1641.210938 1473.691406 1658.140625 1473.691406 1668.570312 1484.121094 L 1748.851562 1564.410156 C 1759.28125 1574.839844 1759.28125 1591.75 1748.851562 1602.179688 C 1743.640625 1607.398438 1736.789062 1610.011719 1729.960938 1610.011719 Z M 2360.050781 2240.101562 C 2353.210938 2240.101562 2346.371094 2237.480469 2341.160156 2232.269531 L 1863.03125 1754.140625 C 1852.601562 1743.710938 1852.601562 1726.789062 1863.03125 1716.351562 C 1873.460938 1705.929688 1890.371094 1705.929688 1900.800781 1716.351562 L 2378.929688 2194.488281 C 2389.371094 2204.929688 2389.371094 2221.828125 2378.929688 2232.269531 C 2373.71875 2237.480469 2366.878906 2240.101562 2360.050781 2240.101562 "/>
<path fill-rule="evenodd" fill="rgb(66.992188%, 66.992188%, 100%)" fill-opacity="1" d="M 2215.660156 1920.019531 C 2208.839844 1920.019531 2202 1917.410156 2196.769531 1912.191406 L 1718.628906 1434.058594 C 1708.210938 1423.628906 1708.210938 1406.710938 1718.628906 1396.28125 C 1729.058594 1385.859375 1745.980469 1385.859375 1756.410156 1396.28125 L 2234.550781 1874.421875 C 2244.988281 1884.859375 2244.988281 1901.769531 2234.550781 1912.199219 C 2229.328125 1917.410156 2222.5 1920.019531 2215.660156 1920.019531 Z M 2447.898438 2152.25 C 2441.058594 2152.25 2434.230469 2149.660156 2429 2144.429688 L 2348.710938 2064.148438 C 2338.289062 2053.710938 2338.289062 2036.800781 2348.710938 2026.371094 C 2359.140625 2015.949219 2376.070312 2015.949219 2386.488281 2026.371094 L 2466.769531 2106.660156 C 2477.210938 2117.078125 2477.210938 2133.988281 2466.789062 2144.429688 C 2461.558594 2149.660156 2454.738281 2152.25 2447.898438 2152.25 "/>
<path fill-rule="evenodd" fill="rgb(66.992188%, 66.992188%, 100%)" fill-opacity="1" d="M 1905.640625 1434.328125 C 1898.800781 1434.328125 1891.96875 1431.71875 1886.75 1426.511719 L 1806.460938 1346.21875 C 1796.03125 1335.789062 1796.03125 1318.878906 1806.460938 1308.441406 C 1816.898438 1298.011719 1833.808594 1298.011719 1844.238281 1308.441406 L 1924.519531 1388.730469 C 1934.949219 1399.171875 1934.949219 1416.078125 1924.519531 1426.511719 C 1919.308594 1431.71875 1912.46875 1434.328125 1905.640625 1434.328125 Z M 2535.71875 2064.410156 C 2528.898438 2064.410156 2522.058594 2061.800781 2516.851562 2056.589844 L 2038.710938 1578.460938 C 2028.28125 1568.03125 2028.28125 1551.109375 2038.710938 1540.691406 C 2049.128906 1530.261719 2066.039062 1530.261719 2076.480469 1540.691406 L 2554.609375 2018.820312 C 2565.050781 2029.238281 2565.050781 2046.171875 2554.609375 2056.589844 C 2549.398438 2061.800781 2542.558594 2064.410156 2535.71875 2064.410156 "/>
<path fill-rule="evenodd" fill="rgb(66.992188%, 66.992188%, 100%)" fill-opacity="1" d="M 2391.328125 1744.339844 C 2384.511719 1744.339844 2377.671875 1741.738281 2372.460938 1736.519531 L 1894.308594 1258.390625 C 1883.878906 1247.949219 1883.878906 1231.039062 1894.308594 1220.609375 C 1904.738281 1210.179688 1921.660156 1210.179688 1932.089844 1220.609375 L 2410.21875 1698.75 C 2420.660156 1709.179688 2420.660156 1726.101562 2410.21875 1736.53125 C 2405.011719 1741.738281 2398.171875 1744.339844 2391.328125 1744.339844 Z M 2623.578125 1976.578125 C 2616.738281 1976.578125 2609.898438 1973.96875 2604.691406 1968.738281 L 2524.390625 1888.46875 C 2513.960938 1878.03125 2513.960938 1861.128906 2524.390625 1850.699219 C 2534.828125 1840.25 2551.738281 1840.25 2562.160156 1850.699219 L 2642.460938 1930.980469 C 2652.898438 1941.398438 2652.898438 1958.320312 2642.480469 1968.738281 C 2637.25 1973.96875 2630.410156 1976.578125 2623.578125 1976.578125 "/>
<path fill-rule="evenodd" fill="rgb(87.109375%, 87.109375%, 92.576599%)" fill-opacity="1" d="M 2940.808594 2902.449219 L 1724.320312 2902.449219 C 1709.570312 2902.449219 1697.609375 2890.488281 1697.609375 2875.730469 C 1697.609375 2860.988281 1709.570312 2849.03125 1724.320312 2849.03125 L 2940.808594 2849.03125 C 2955.550781 2849.03125 2967.519531 2860.988281 2967.519531 2875.730469 C 2967.519531 2890.488281 2955.550781 2902.449219 2940.808594 2902.449219 "/>
<path fill-rule="evenodd" fill="rgb(87.109375%, 87.109375%, 92.576599%)" fill-opacity="1" d="M 1381.648438 3102.78125 C 1377.109375 3102.78125 1372.53125 3101.628906 1368.320312 3099.199219 C 1355.539062 3091.820312 1351.160156 3075.480469 1358.539062 3062.710938 L 1428.398438 2941.699219 C 1435.769531 2928.921875 1452.101562 2924.550781 1464.878906 2931.929688 C 1477.660156 2939.289062 1482.03125 2955.640625 1474.660156 2968.410156 L 1404.808594 3089.410156 C 1399.859375 3097.988281 1390.878906 3102.78125 1381.648438 3102.78125 "/>
<path fill-rule="evenodd" fill="rgb(87.109375%, 87.109375%, 92.576599%)" fill-opacity="1" d="M 1684.390625 3102.78125 C 1675.160156 3102.78125 1666.179688 3097.988281 1661.230469 3089.410156 L 1591.371094 2968.410156 C 1584 2955.640625 1588.378906 2939.289062 1601.148438 2931.929688 C 1613.929688 2924.550781 1630.269531 2928.921875 1637.640625 2941.699219 L 1707.5 3062.710938 C 1714.871094 3075.480469 1710.5 3091.820312 1697.71875 3099.199219 C 1693.519531 3101.628906 1688.921875 3102.78125 1684.390625 3102.78125 "/>
<path fill-rule="evenodd" fill="rgb(87.109375%, 87.109375%, 92.576599%)" fill-opacity="1" d="M 1527.800781 3102.761719 C 1513.050781 3102.761719 1501.078125 3090.800781 1501.078125 3076.058594 L 1501.078125 2955.050781 C 1501.078125 2940.308594 1513.050781 2928.351562 1527.800781 2928.351562 C 1542.550781 2928.351562 1554.511719 2940.308594 1554.511719 2955.050781 L 1554.511719 3076.058594 C 1554.511719 3090.800781 1542.550781 3102.761719 1527.800781 3102.761719 "/>
</svg>
